<svg xmlns="http://www.w3.org/2000/svg" width="960" height="168" viewBox="0 0 960 168" role="img" aria-labelledby="title desc">
  <title id="title">Pixel RPG papyrus quote</title>
  <desc id="desc">Knowledge should deepen with provenance as it grows. Agency should grow beyond tools into self-agency.</desc>
  <defs>
    <linearGradient id="paper" x1="0" y1="0" x2="1" y2="1">
      <stop offset="0" stop-color="#f8df9e"/>
      <stop offset=".38" stop-color="#f5d894"/>
      <stop offset=".72" stop-color="#edc378"/>
      <stop offset="1" stop-color="#d89b55"/>
    </linearGradient>
    <linearGradient id="roll" x1="0" y1="0" x2="1" y2="0">
      <stop offset="0" stop-color="#7b461c"/>
      <stop offset=".25" stop-color="#e5ad5d"/>
      <stop offset=".55" stop-color="#f6d28a"/>
      <stop offset=".82" stop-color="#b87531"/>
      <stop offset="1" stop-color="#5a3217"/>
    </linearGradient>
  </defs>

  <g shape-rendering="crispEdges">
    <!-- soft shadow -->
    <rect x="36" y="18" width="894" height="144" fill="#000" opacity=".12"/>

    <!-- scroll rolls -->
    <rect x="30" y="22" width="50" height="124" fill="url(#roll)" stroke="#4a2a16" stroke-width="5"/>
    <rect x="40" y="12" width="44" height="148" fill="url(#roll)" stroke="#4a2a16" stroke-width="5"/>
    <rect x="50" y="28" width="18" height="108" fill="#f6d28a" opacity=".65"/>
    <rect x="30" y="30" width="12" height="100" fill="#5f3518" opacity=".58"/>
    <rect x="44" y="16" width="24" height="8" fill="#fff0bd" opacity=".35"/>
    <rect x="44" y="144" width="24" height="8" fill="#5f3518" opacity=".35"/>

    <rect x="880" y="22" width="50" height="124" fill="url(#roll)" stroke="#4a2a16" stroke-width="5"/>
    <rect x="876" y="12" width="44" height="148" fill="url(#roll)" stroke="#4a2a16" stroke-width="5"/>
    <rect x="894" y="28" width="18" height="108" fill="#f6d28a" opacity=".65"/>
    <rect x="920" y="30" width="12" height="100" fill="#5f3518" opacity=".58"/>
    <rect x="892" y="16" width="24" height="8" fill="#fff0bd" opacity=".35"/>
    <rect x="892" y="144" width="24" height="8" fill="#5f3518" opacity=".35"/>

    <!-- main parchment body -->
    <path d="M76 18H884V26H898V142H884V150H76V142H62V26H76Z"
          fill="url(#paper)" stroke="#4a2a16" stroke-width="5"/>

    <!-- inner pixel border and aged edge -->
    <path d="M84 28H876V34H888V134H876V140H84V134H72V34H84Z"
          fill="none" stroke="#b87531" stroke-width="3" opacity=".66"/>
    <rect x="88" y="30" width="746" height="5" fill="#fff0bd" opacity=".32"/>
    <rect x="104" y="138" width="748" height="5" fill="#8f541f" opacity=".18"/>
    <rect x="78" y="42" width="8" height="64" fill="#c38338" opacity=".20"/>
    <rect x="874" y="42" width="8" height="64" fill="#c38338" opacity=".22"/>

    <!-- blocky chipped edge bits -->
    <g fill="#6b3b19" opacity=".72">
      <rect x="168" y="148" width="10" height="8"/>
      <rect x="268" y="144" width="8" height="6"/>
      <rect x="728" y="144" width="10" height="6"/>
      <rect x="812" y="148" width="12" height="8"/>
      <rect x="84" y="20" width="14" height="7"/>
      <rect x="236" y="20" width="12" height="7"/>
      <rect x="760" y="20" width="12" height="7"/>
      <rect x="850" y="20" width="14" height="7"/>
    </g>

    <!-- subtle parchment pixels -->
    <rect x="807" y="42" width="3" height="3" fill="#8a4d22" opacity="0.16"/><rect x="90" y="34" width="3" height="3" fill="#c8893a" opacity="0.16"/><rect x="138" y="45" width="5" height="5" fill="#c8893a" opacity="0.24"/><rect x="346" y="136" width="3" height="3" fill="#8a4d22" opacity="0.12"/><rect x="184" y="139" width="5" height="5" fill="#8a4d22" opacity="0.12"/><rect x="104" y="126" width="5" height="5" fill="#b6722b" opacity="0.24"/><rect x="123" y="37" width="2" height="2" fill="#8a4d22" opacity="0.24"/><rect x="362" y="29" width="6" height="6" fill="#c8893a" opacity="0.12"/><rect x="778" y="57" width="6" height="6" fill="#8a4d22" opacity="0.24"/><rect x="605" y="143" width="5" height="5" fill="#b6722b" opacity="0.16"/><rect x="249" y="146" width="5" height="5" fill="#c8893a" opacity="0.16"/><rect x="805" y="46" width="4" height="4" fill="#8a4d22" opacity="0.12"/><rect x="375" y="36" width="4" height="4" fill="#b6722b" opacity="0.2"/><rect x="88" y="137" width="4" height="4" fill="#c8893a" opacity="0.24"/><rect x="784" y="145" width="5" height="5" fill="#b6722b" opacity="0.12"/><rect x="105" y="54" width="3" height="3" fill="#b6722b" opacity="0.2"/><rect x="181" y="54" width="5" height="5" fill="#b6722b" opacity="0.2"/><rect x="596" y="137" width="6" height="6" fill="#c8893a" opacity="0.24"/><rect x="760" y="142" width="2" height="2" fill="#8a4d22" opacity="0.2"/><rect x="84" y="32" width="2" height="2" fill="#b6722b" opacity="0.2"/><rect x="649" y="29" width="3" height="3" fill="#b6722b" opacity="0.12"/><rect x="178" y="145" width="6" height="6" fill="#8a4d22" opacity="0.12"/><rect x="169" y="134" width="4" height="4" fill="#8a4d22" opacity="0.12"/><rect x="793" y="125" width="6" height="6" fill="#8a4d22" opacity="0.12"/><rect x="782" y="40" width="5" height="5" fill="#b6722b" opacity="0.24"/><rect x="105" y="49" width="3" height="3" fill="#c8893a" opacity="0.24"/><rect x="808" y="33" width="2" height="2" fill="#8a4d22" opacity="0.24"/><rect x="852" y="44" width="6" height="6" fill="#8a4d22" opacity="0.12"/><rect x="840" y="135" width="5" height="5" fill="#b6722b" opacity="0.16"/><rect x="766" y="44" width="2" height="2" fill="#b6722b" opacity="0.12"/><rect x="170" y="49" width="6" height="6" fill="#8a4d22" opacity="0.12"/><rect x="190" y="140" width="2" height="2" fill="#8a4d22" opacity="0.16"/><rect x="801" y="46" width="5" height="5" fill="#b6722b" opacity="0.16"/><rect x="155" y="126" width="4" height="4" fill="#b6722b" opacity="0.24"/><rect x="100" y="141" width="5" height="5" fill="#8a4d22" opacity="0.2"/><rect x="157" y="144" width="4" height="4" fill="#8a4d22" opacity="0.2"/><rect x="105" y="45" width="4" height="4" fill="#8a4d22" opacity="0.24"/><rect x="132" y="133" width="5" height="5" fill="#8a4d22" opacity="0.24"/><rect x="514" y="145" width="3" height="3" fill="#8a4d22" opacity="0.24"/><rect x="233" y="33" width="5" height="5" fill="#c8893a" opacity="0.2"/><rect x="159" y="56" width="4" height="4" fill="#c8893a" opacity="0.2"/><rect x="425" y="145" width="3" height="3" fill="#b6722b" opacity="0.2"/><rect x="861" y="46" width="5" height="5" fill="#b6722b" opacity="0.16"/><rect x="687" y="140" width="2" height="2" fill="#c8893a" opacity="0.12"/><rect x="163" y="35" width="6" height="6" fill="#b6722b" opacity="0.24"/><rect x="762" y="49" width="3" height="3" fill="#b6722b" opacity="0.2"/><rect x="139" y="44" width="4" height="4" fill="#b6722b" opacity="0.12"/><rect x="516" y="27" width="2" height="2" fill="#8a4d22" opacity="0.16"/><rect x="99" y="131" width="2" height="2" fill="#b6722b" opacity="0.2"/><rect x="171" y="134" width="2" height="2" fill="#8a4d22" opacity="0.12"/><rect x="506" y="38" width="4" height="4" fill="#b6722b" opacity="0.24"/><rect x="756" y="127" width="6" height="6" fill="#b6722b" opacity="0.16"/><rect x="125" y="134" width="3" height="3" fill="#b6722b" opacity="0.12"/><rect x="151" y="55" width="3" height="3" fill="#8a4d22" opacity="0.16"/><rect x="155" y="131" width="6" height="6" fill="#b6722b" opacity="0.24"/><rect x="234" y="29" width="3" height="3" fill="#b6722b" opacity="0.2"/><rect x="784" y="129" width="3" height="3" fill="#b6722b" opacity="0.24"/><rect x="813" y="137" width="5" height="5" fill="#8a4d22" opacity="0.2"/><rect x="651" y="36" width="4" height="4" fill="#8a4d22" opacity="0.2"/><rect x="772" y="132" width="5" height="5" fill="#b6722b" opacity="0.2"/><rect x="689" y="37" width="5" height="5" fill="#b6722b" opacity="0.24"/><rect x="180" y="125" width="2" height="2" fill="#8a4d22" opacity="0.2"/><rect x="168" y="136" width="2" height="2" fill="#8a4d22" opacity="0.16"/><rect x="90" y="56" width="3" height="3" fill="#8a4d22" opacity="0.24"/><rect x="858" y="56" width="5" height="5" fill="#c8893a" opacity="0.12"/><rect x="190" y="36" width="4" height="4" fill="#c8893a" opacity="0.12"/><rect x="842" y="37" width="5" height="5" fill="#8a4d22" opacity="0.2"/><rect x="175" y="137" width="4" height="4" fill="#8a4d22" opacity="0.12"/><rect x="850" y="51" width="4" height="4" fill="#b6722b" opacity="0.12"/><rect x="825" y="41" width="5" height="5" fill="#c8893a" opacity="0.2"/><rect x="327" y="137" width="2" height="2" fill="#8a4d22" opacity="0.24"/><rect x="146" y="138" width="4" height="4" fill="#c8893a" opacity="0.2"/><rect x="854" y="145" width="2" height="2" fill="#8a4d22" opacity="0.24"/><rect x="827" y="128" width="6" height="6" fill="#c8893a" opacity="0.12"/><rect x="832" y="140" width="6" height="6" fill="#b6722b" opacity="0.24"/><rect x="685" y="30" width="6" height="6" fill="#b6722b" opacity="0.12"/><rect x="831" y="34" width="5" height="5" fill="#b6722b" opacity="0.2"/><rect x="81" y="31" width="5" height="5" fill="#c8893a" opacity="0.16"/><rect x="87" y="124" width="2" height="2" fill="#8a4d22" opacity="0.16"/><rect x="159" y="124" width="2" height="2" fill="#c8893a" opacity="0.16"/>

    
    <g fill="#8a5526" opacity=".75" shape-rendering="crispEdges">
      <rect x="346" y="37" width="96" height="4"/>
      <rect x="458" y="37" width="18" height="4"/>
      <rect x="484" y="37" width="26" height="4"/>
      <rect x="524" y="37" width="18" height="4"/>
      <rect x="558" y="37" width="96" height="4"/>
      <rect x="470" y="31" width="6" height="16"/>
      <rect x="492" y="27" width="8" height="24"/>
      <rect x="500" y="19" width="8" height="40"/>
      <rect x="508" y="27" width="8" height="24"/>
      <rect x="536" y="31" width="6" height="16"/>
      <rect x="450" y="34" width="8" height="10"/>
      <rect x="542" y="34" width="8" height="10"/>
    </g>
    
    <g fill="#8a5526" opacity=".75" shape-rendering="crispEdges">
      <rect x="346" y="136" width="96" height="4"/>
      <rect x="458" y="136" width="18" height="4"/>
      <rect x="484" y="136" width="26" height="4"/>
      <rect x="524" y="136" width="18" height="4"/>
      <rect x="558" y="136" width="96" height="4"/>
      <rect x="470" y="130" width="6" height="16"/>
      <rect x="492" y="126" width="8" height="24"/>
      <rect x="500" y="118" width="8" height="40"/>
      <rect x="508" y="126" width="8" height="24"/>
      <rect x="536" y="130" width="6" height="16"/>
      <rect x="450" y="133" width="8" height="10"/>
      <rect x="542" y="133" width="8" height="10"/>
    </g>

    <!-- pixel text, handmade from vector squares: no external font dependency -->
    <g shape-rendering="crispEdges">
      <path fill="#7b4b24" opacity=".38" transform="translate(2 2)" d="M79.88 61.00h2.75v2.75h-2.75zM90.88 61.00h2.75v2.75h-2.75zM79.88 63.75h2.75v2.75h-2.75zM88.12 63.75h2.75v2.75h-2.75zM79.88 66.50h2.75v2.75h-2.75zM85.38 66.50h2.75v2.75h-2.75zM79.88 69.25h2.75v2.75h-2.75zM82.62 69.25h2.75v2.75h-2.75zM79.88 72.00h2.75v2.75h-2.75zM85.38 72.00h2.75v2.75h-2.75zM79.88 74.75h2.75v2.75h-2.75zM88.12 74.75h2.75v2.75h-2.75zM79.88 77.50h2.75v2.75h-2.75zM90.88 77.50h2.75v2.75h-2.75zM96.38 66.50h2.75v2.75h-2.75zM101.88 66.50h2.75v2.75h-2.75zM104.62 66.50h2.75v2.75h-2.75zM96.38 69.25h2.75v2.75h-2.75zM99.12 69.25h2.75v2.75h-2.75zM107.38 69.25h2.75v2.75h-2.75zM96.38 72.00h2.75v2.75h-2.75zM107.38 72.00h2.75v2.75h-2.75zM96.38 74.75h2.75v2.75h-2.75zM107.38 74.75h2.75v2.75h-2.75zM96.38 77.50h2.75v2.75h-2.75zM107.38 77.50h2.75v2.75h-2.75zM115.62 66.50h2.75v2.75h-2.75zM118.38 66.50h2.75v2.75h-2.75zM121.12 66.50h2.75v2.75h-2.75zM112.88 69.25h2.75v2.75h-2.75zM123.88 69.25h2.75v2.75h-2.75zM112.88 72.00h2.75v2.75h-2.75zM123.88 72.00h2.75v2.75h-2.75zM112.88 74.75h2.75v2.75h-2.75zM123.88 74.75h2.75v2.75h-2.75zM115.62 77.50h2.75v2.75h-2.75zM118.38 77.50h2.75v2.75h-2.75zM121.12 77.50h2.75v2.75h-2.75zM129.38 66.50h2.75v2.75h-2.75zM140.38 66.50h2.75v2.75h-2.75zM129.38 69.25h2.75v2.75h-2.75zM134.88 69.25h2.75v2.75h-2.75zM140.38 69.25h2.75v2.75h-2.75zM129.38 72.00h2.75v2.75h-2.75zM134.88 72.00h2.75v2.75h-2.75zM140.38 72.00h2.75v2.75h-2.75zM129.38 74.75h2.75v2.75h-2.75zM134.88 74.75h2.75v2.75h-2.75zM140.38 74.75h2.75v2.75h-2.75zM132.12 77.50h2.75v2.75h-2.75zM137.62 77.50h2.75v2.75h-2.75zM145.88 61.00h2.75v2.75h-2.75zM148.62 61.00h2.75v2.75h-2.75zM148.62 63.75h2.75v2.75h-2.75zM148.62 66.50h2.75v2.75h-2.75zM148.62 69.25h2.75v2.75h-2.75zM148.62 72.00h2.75v2.75h-2.75zM148.62 74.75h2.75v2.75h-2.75zM145.88 77.50h2.75v2.75h-2.75zM148.62 77.50h2.75v2.75h-2.75zM151.38 77.50h2.75v2.75h-2.75zM159.62 66.50h2.75v2.75h-2.75zM162.38 66.50h2.75v2.75h-2.75zM165.12 66.50h2.75v2.75h-2.75zM156.88 69.25h2.75v2.75h-2.75zM167.88 69.25h2.75v2.75h-2.75zM156.88 72.00h2.75v2.75h-2.75zM159.62 72.00h2.75v2.75h-2.75zM162.38 72.00h2.75v2.75h-2.75zM165.12 72.00h2.75v2.75h-2.75zM167.88 72.00h2.75v2.75h-2.75zM156.88 74.75h2.75v2.75h-2.75zM159.62 77.50h2.75v2.75h-2.75zM162.38 77.50h2.75v2.75h-2.75zM165.12 77.50h2.75v2.75h-2.75zM184.38 61.00h2.75v2.75h-2.75zM184.38 63.75h2.75v2.75h-2.75zM176.12 66.50h2.75v2.75h-2.75zM178.88 66.50h2.75v2.75h-2.75zM184.38 66.50h2.75v2.75h-2.75zM173.38 69.25h2.75v2.75h-2.75zM181.62 69.25h2.75v2.75h-2.75zM184.38 69.25h2.75v2.75h-2.75zM173.38 72.00h2.75v2.75h-2.75zM184.38 72.00h2.75v2.75h-2.75zM173.38 74.75h2.75v2.75h-2.75zM184.38 74.75h2.75v2.75h-2.75zM176.12 77.50h2.75v2.75h-2.75zM178.88 77.50h2.75v2.75h-2.75zM181.62 77.50h2.75v2.75h-2.75zM184.38 77.50h2.75v2.75h-2.75zM192.62 63.75h2.75v2.75h-2.75zM195.38 63.75h2.75v2.75h-2.75zM198.12 63.75h2.75v2.75h-2.75zM200.88 63.75h2.75v2.75h-2.75zM189.88 66.50h2.75v2.75h-2.75zM200.88 66.50h2.75v2.75h-2.75zM189.88 69.25h2.75v2.75h-2.75zM200.88 69.25h2.75v2.75h-2.75zM192.62 72.00h2.75v2.75h-2.75zM195.38 72.00h2.75v2.75h-2.75zM198.12 72.00h2.75v2.75h-2.75zM200.88 72.00h2.75v2.75h-2.75zM200.88 74.75h2.75v2.75h-2.75zM192.62 77.50h2.75v2.75h-2.75zM195.38 77.50h2.75v2.75h-2.75zM198.12 77.50h2.75v2.75h-2.75zM209.12 66.50h2.75v2.75h-2.75zM211.88 66.50h2.75v2.75h-2.75zM214.62 66.50h2.75v2.75h-2.75zM206.38 69.25h2.75v2.75h-2.75zM217.38 69.25h2.75v2.75h-2.75zM206.38 72.00h2.75v2.75h-2.75zM209.12 72.00h2.75v2.75h-2.75zM211.88 72.00h2.75v2.75h-2.75zM214.62 72.00h2.75v2.75h-2.75zM217.38 72.00h2.75v2.75h-2.75zM206.38 74.75h2.75v2.75h-2.75zM209.12 77.50h2.75v2.75h-2.75zM211.88 77.50h2.75v2.75h-2.75zM214.62 77.50h2.75v2.75h-2.75zM239.38 66.50h2.75v2.75h-2.75zM242.12 66.50h2.75v2.75h-2.75zM244.88 66.50h2.75v2.75h-2.75zM247.62 66.50h2.75v2.75h-2.75zM236.62 69.25h2.75v2.75h-2.75zM239.38 72.00h2.75v2.75h-2.75zM242.12 72.00h2.75v2.75h-2.75zM244.88 72.00h2.75v2.75h-2.75zM247.62 74.75h2.75v2.75h-2.75zM236.62 77.50h2.75v2.75h-2.75zM239.38 77.50h2.75v2.75h-2.75zM242.12 77.50h2.75v2.75h-2.75zM244.88 77.50h2.75v2.75h-2.75zM253.12 61.00h2.75v2.75h-2.75zM253.12 63.75h2.75v2.75h-2.75zM253.12 66.50h2.75v2.75h-2.75zM258.62 66.50h2.75v2.75h-2.75zM261.38 66.50h2.75v2.75h-2.75zM253.12 69.25h2.75v2.75h-2.75zM255.88 69.25h2.75v2.75h-2.75zM264.12 69.25h2.75v2.75h-2.75zM253.12 72.00h2.75v2.75h-2.75zM264.12 72.00h2.75v2.75h-2.75zM253.12 74.75h2.75v2.75h-2.75zM264.12 74.75h2.75v2.75h-2.75zM253.12 77.50h2.75v2.75h-2.75zM264.12 77.50h2.75v2.75h-2.75zM272.38 66.50h2.75v2.75h-2.75zM275.12 66.50h2.75v2.75h-2.75zM277.88 66.50h2.75v2.75h-2.75zM269.62 69.25h2.75v2.75h-2.75zM280.62 69.25h2.75v2.75h-2.75zM269.62 72.00h2.75v2.75h-2.75zM280.62 72.00h2.75v2.75h-2.75zM269.62 74.75h2.75v2.75h-2.75zM280.62 74.75h2.75v2.75h-2.75zM272.38 77.50h2.75v2.75h-2.75zM275.12 77.50h2.75v2.75h-2.75zM277.88 77.50h2.75v2.75h-2.75zM286.12 66.50h2.75v2.75h-2.75zM297.12 66.50h2.75v2.75h-2.75zM286.12 69.25h2.75v2.75h-2.75zM297.12 69.25h2.75v2.75h-2.75zM286.12 72.00h2.75v2.75h-2.75zM297.12 72.00h2.75v2.75h-2.75zM286.12 74.75h2.75v2.75h-2.75zM294.38 74.75h2.75v2.75h-2.75zM297.12 74.75h2.75v2.75h-2.75zM288.88 77.50h2.75v2.75h-2.75zM291.62 77.50h2.75v2.75h-2.75zM297.12 77.50h2.75v2.75h-2.75zM302.62 61.00h2.75v2.75h-2.75zM305.38 61.00h2.75v2.75h-2.75zM305.38 63.75h2.75v2.75h-2.75zM305.38 66.50h2.75v2.75h-2.75zM305.38 69.25h2.75v2.75h-2.75zM305.38 72.00h2.75v2.75h-2.75zM305.38 74.75h2.75v2.75h-2.75zM302.62 77.50h2.75v2.75h-2.75zM305.38 77.50h2.75v2.75h-2.75zM308.12 77.50h2.75v2.75h-2.75zM324.62 61.00h2.75v2.75h-2.75zM324.62 63.75h2.75v2.75h-2.75zM316.38 66.50h2.75v2.75h-2.75zM319.12 66.50h2.75v2.75h-2.75zM324.62 66.50h2.75v2.75h-2.75zM313.62 69.25h2.75v2.75h-2.75zM321.88 69.25h2.75v2.75h-2.75zM324.62 69.25h2.75v2.75h-2.75zM313.62 72.00h2.75v2.75h-2.75zM324.62 72.00h2.75v2.75h-2.75zM313.62 74.75h2.75v2.75h-2.75zM324.62 74.75h2.75v2.75h-2.75zM316.38 77.50h2.75v2.75h-2.75zM319.12 77.50h2.75v2.75h-2.75zM321.88 77.50h2.75v2.75h-2.75zM324.62 77.50h2.75v2.75h-2.75zM354.88 61.00h2.75v2.75h-2.75zM354.88 63.75h2.75v2.75h-2.75zM346.62 66.50h2.75v2.75h-2.75zM349.38 66.50h2.75v2.75h-2.75zM354.88 66.50h2.75v2.75h-2.75zM343.88 69.25h2.75v2.75h-2.75zM352.12 69.25h2.75v2.75h-2.75zM354.88 69.25h2.75v2.75h-2.75zM343.88 72.00h2.75v2.75h-2.75zM354.88 72.00h2.75v2.75h-2.75zM343.88 74.75h2.75v2.75h-2.75zM354.88 74.75h2.75v2.75h-2.75zM346.62 77.50h2.75v2.75h-2.75zM349.38 77.50h2.75v2.75h-2.75zM352.12 77.50h2.75v2.75h-2.75zM354.88 77.50h2.75v2.75h-2.75zM363.12 66.50h2.75v2.75h-2.75zM365.88 66.50h2.75v2.75h-2.75zM368.62 66.50h2.75v2.75h-2.75zM360.38 69.25h2.75v2.75h-2.75zM371.38 69.25h2.75v2.75h-2.75zM360.38 72.00h2.75v2.75h-2.75zM363.12 72.00h2.75v2.75h-2.75zM365.88 72.00h2.75v2.75h-2.75zM368.62 72.00h2.75v2.75h-2.75zM371.38 72.00h2.75v2.75h-2.75zM360.38 74.75h2.75v2.75h-2.75zM363.12 77.50h2.75v2.75h-2.75zM365.88 77.50h2.75v2.75h-2.75zM368.62 77.50h2.75v2.75h-2.75zM379.62 66.50h2.75v2.75h-2.75zM382.38 66.50h2.75v2.75h-2.75zM385.12 66.50h2.75v2.75h-2.75zM376.88 69.25h2.75v2.75h-2.75zM387.88 69.25h2.75v2.75h-2.75zM376.88 72.00h2.75v2.75h-2.75zM379.62 72.00h2.75v2.75h-2.75zM382.38 72.00h2.75v2.75h-2.75zM385.12 72.00h2.75v2.75h-2.75zM387.88 72.00h2.75v2.75h-2.75zM376.88 74.75h2.75v2.75h-2.75zM379.62 77.50h2.75v2.75h-2.75zM382.38 77.50h2.75v2.75h-2.75zM385.12 77.50h2.75v2.75h-2.75zM393.38 63.75h2.75v2.75h-2.75zM396.12 63.75h2.75v2.75h-2.75zM398.88 63.75h2.75v2.75h-2.75zM401.62 63.75h2.75v2.75h-2.75zM393.38 66.50h2.75v2.75h-2.75zM404.38 66.50h2.75v2.75h-2.75zM393.38 69.25h2.75v2.75h-2.75zM404.38 69.25h2.75v2.75h-2.75zM393.38 72.00h2.75v2.75h-2.75zM396.12 72.00h2.75v2.75h-2.75zM398.88 72.00h2.75v2.75h-2.75zM401.62 72.00h2.75v2.75h-2.75zM393.38 74.75h2.75v2.75h-2.75zM393.38 77.50h2.75v2.75h-2.75zM412.62 66.50h2.75v2.75h-2.75zM415.38 66.50h2.75v2.75h-2.75zM418.12 66.50h2.75v2.75h-2.75zM409.88 69.25h2.75v2.75h-2.75zM420.88 69.25h2.75v2.75h-2.75zM409.88 72.00h2.75v2.75h-2.75zM412.62 72.00h2.75v2.75h-2.75zM415.38 72.00h2.75v2.75h-2.75zM418.12 72.00h2.75v2.75h-2.75zM420.88 72.00h2.75v2.75h-2.75zM409.88 74.75h2.75v2.75h-2.75zM412.62 77.50h2.75v2.75h-2.75zM415.38 77.50h2.75v2.75h-2.75zM418.12 77.50h2.75v2.75h-2.75zM426.38 66.50h2.75v2.75h-2.75zM431.88 66.50h2.75v2.75h-2.75zM434.62 66.50h2.75v2.75h-2.75zM426.38 69.25h2.75v2.75h-2.75zM429.12 69.25h2.75v2.75h-2.75zM437.38 69.25h2.75v2.75h-2.75zM426.38 72.00h2.75v2.75h-2.75zM437.38 72.00h2.75v2.75h-2.75zM426.38 74.75h2.75v2.75h-2.75zM437.38 74.75h2.75v2.75h-2.75zM426.38 77.50h2.75v2.75h-2.75zM437.38 77.50h2.75v2.75h-2.75zM456.62 66.50h2.75v2.75h-2.75zM467.62 66.50h2.75v2.75h-2.75zM456.62 69.25h2.75v2.75h-2.75zM462.12 69.25h2.75v2.75h-2.75zM467.62 69.25h2.75v2.75h-2.75zM456.62 72.00h2.75v2.75h-2.75zM462.12 72.00h2.75v2.75h-2.75zM467.62 72.00h2.75v2.75h-2.75zM456.62 74.75h2.75v2.75h-2.75zM462.12 74.75h2.75v2.75h-2.75zM467.62 74.75h2.75v2.75h-2.75zM459.38 77.50h2.75v2.75h-2.75zM464.88 77.50h2.75v2.75h-2.75zM475.88 61.00h2.75v2.75h-2.75zM473.12 66.50h2.75v2.75h-2.75zM475.88 66.50h2.75v2.75h-2.75zM475.88 69.25h2.75v2.75h-2.75zM475.88 72.00h2.75v2.75h-2.75zM475.88 74.75h2.75v2.75h-2.75zM473.12 77.50h2.75v2.75h-2.75zM475.88 77.50h2.75v2.75h-2.75zM478.62 77.50h2.75v2.75h-2.75zM486.88 61.00h2.75v2.75h-2.75zM486.88 63.75h2.75v2.75h-2.75zM484.12 66.50h2.75v2.75h-2.75zM486.88 66.50h2.75v2.75h-2.75zM489.62 66.50h2.75v2.75h-2.75zM486.88 69.25h2.75v2.75h-2.75zM486.88 72.00h2.75v2.75h-2.75zM486.88 74.75h2.75v2.75h-2.75zM495.12 74.75h2.75v2.75h-2.75zM489.62 77.50h2.75v2.75h-2.75zM492.38 77.50h2.75v2.75h-2.75zM500.62 61.00h2.75v2.75h-2.75zM500.62 63.75h2.75v2.75h-2.75zM500.62 66.50h2.75v2.75h-2.75zM506.12 66.50h2.75v2.75h-2.75zM508.88 66.50h2.75v2.75h-2.75zM500.62 69.25h2.75v2.75h-2.75zM503.38 69.25h2.75v2.75h-2.75zM511.62 69.25h2.75v2.75h-2.75zM500.62 72.00h2.75v2.75h-2.75zM511.62 72.00h2.75v2.75h-2.75zM500.62 74.75h2.75v2.75h-2.75zM511.62 74.75h2.75v2.75h-2.75zM500.62 77.50h2.75v2.75h-2.75zM511.62 77.50h2.75v2.75h-2.75zM530.88 63.75h2.75v2.75h-2.75zM533.62 63.75h2.75v2.75h-2.75zM536.38 63.75h2.75v2.75h-2.75zM539.12 63.75h2.75v2.75h-2.75zM530.88 66.50h2.75v2.75h-2.75zM541.88 66.50h2.75v2.75h-2.75zM530.88 69.25h2.75v2.75h-2.75zM541.88 69.25h2.75v2.75h-2.75zM530.88 72.00h2.75v2.75h-2.75zM533.62 72.00h2.75v2.75h-2.75zM536.38 72.00h2.75v2.75h-2.75zM539.12 72.00h2.75v2.75h-2.75zM530.88 74.75h2.75v2.75h-2.75zM530.88 77.50h2.75v2.75h-2.75zM547.38 66.50h2.75v2.75h-2.75zM552.88 66.50h2.75v2.75h-2.75zM555.62 66.50h2.75v2.75h-2.75zM547.38 69.25h2.75v2.75h-2.75zM550.12 69.25h2.75v2.75h-2.75zM558.38 69.25h2.75v2.75h-2.75zM547.38 72.00h2.75v2.75h-2.75zM547.38 74.75h2.75v2.75h-2.75zM547.38 77.50h2.75v2.75h-2.75zM566.62 66.50h2.75v2.75h-2.75zM569.38 66.50h2.75v2.75h-2.75zM572.12 66.50h2.75v2.75h-2.75zM563.88 69.25h2.75v2.75h-2.75zM574.88 69.25h2.75v2.75h-2.75zM563.88 72.00h2.75v2.75h-2.75zM574.88 72.00h2.75v2.75h-2.75zM563.88 74.75h2.75v2.75h-2.75zM574.88 74.75h2.75v2.75h-2.75zM566.62 77.50h2.75v2.75h-2.75zM569.38 77.50h2.75v2.75h-2.75zM572.12 77.50h2.75v2.75h-2.75zM580.38 66.50h2.75v2.75h-2.75zM591.38 66.50h2.75v2.75h-2.75zM580.38 69.25h2.75v2.75h-2.75zM591.38 69.25h2.75v2.75h-2.75zM580.38 72.00h2.75v2.75h-2.75zM591.38 72.00h2.75v2.75h-2.75zM583.12 74.75h2.75v2.75h-2.75zM588.62 74.75h2.75v2.75h-2.75zM585.88 77.50h2.75v2.75h-2.75zM599.62 66.50h2.75v2.75h-2.75zM602.38 66.50h2.75v2.75h-2.75zM605.12 66.50h2.75v2.75h-2.75zM596.88 69.25h2.75v2.75h-2.75zM607.88 69.25h2.75v2.75h-2.75zM596.88 72.00h2.75v2.75h-2.75zM599.62 72.00h2.75v2.75h-2.75zM602.38 72.00h2.75v2.75h-2.75zM605.12 72.00h2.75v2.75h-2.75zM607.88 72.00h2.75v2.75h-2.75zM596.88 74.75h2.75v2.75h-2.75zM599.62 77.50h2.75v2.75h-2.75zM602.38 77.50h2.75v2.75h-2.75zM605.12 77.50h2.75v2.75h-2.75zM613.38 66.50h2.75v2.75h-2.75zM618.88 66.50h2.75v2.75h-2.75zM621.62 66.50h2.75v2.75h-2.75zM613.38 69.25h2.75v2.75h-2.75zM616.12 69.25h2.75v2.75h-2.75zM624.38 69.25h2.75v2.75h-2.75zM613.38 72.00h2.75v2.75h-2.75zM624.38 72.00h2.75v2.75h-2.75zM613.38 74.75h2.75v2.75h-2.75zM624.38 74.75h2.75v2.75h-2.75zM613.38 77.50h2.75v2.75h-2.75zM624.38 77.50h2.75v2.75h-2.75zM632.62 66.50h2.75v2.75h-2.75zM635.38 66.50h2.75v2.75h-2.75zM638.12 66.50h2.75v2.75h-2.75zM640.88 69.25h2.75v2.75h-2.75zM632.62 72.00h2.75v2.75h-2.75zM635.38 72.00h2.75v2.75h-2.75zM638.12 72.00h2.75v2.75h-2.75zM640.88 72.00h2.75v2.75h-2.75zM629.88 74.75h2.75v2.75h-2.75zM640.88 74.75h2.75v2.75h-2.75zM632.62 77.50h2.75v2.75h-2.75zM635.38 77.50h2.75v2.75h-2.75zM638.12 77.50h2.75v2.75h-2.75zM640.88 77.50h2.75v2.75h-2.75zM646.38 66.50h2.75v2.75h-2.75zM651.88 66.50h2.75v2.75h-2.75zM654.62 66.50h2.75v2.75h-2.75zM646.38 69.25h2.75v2.75h-2.75zM649.12 69.25h2.75v2.75h-2.75zM657.38 69.25h2.75v2.75h-2.75zM646.38 72.00h2.75v2.75h-2.75zM657.38 72.00h2.75v2.75h-2.75zM646.38 74.75h2.75v2.75h-2.75zM657.38 74.75h2.75v2.75h-2.75zM646.38 77.50h2.75v2.75h-2.75zM657.38 77.50h2.75v2.75h-2.75zM665.62 66.50h2.75v2.75h-2.75zM668.38 66.50h2.75v2.75h-2.75zM671.12 66.50h2.75v2.75h-2.75zM662.88 69.25h2.75v2.75h-2.75zM662.88 72.00h2.75v2.75h-2.75zM662.88 74.75h2.75v2.75h-2.75zM665.62 77.50h2.75v2.75h-2.75zM668.38 77.50h2.75v2.75h-2.75zM671.12 77.50h2.75v2.75h-2.75zM679.38 66.50h2.75v2.75h-2.75zM682.12 66.50h2.75v2.75h-2.75zM684.88 66.50h2.75v2.75h-2.75zM676.62 69.25h2.75v2.75h-2.75zM687.62 69.25h2.75v2.75h-2.75zM676.62 72.00h2.75v2.75h-2.75zM679.38 72.00h2.75v2.75h-2.75zM682.12 72.00h2.75v2.75h-2.75zM684.88 72.00h2.75v2.75h-2.75zM687.62 72.00h2.75v2.75h-2.75zM676.62 74.75h2.75v2.75h-2.75zM679.38 77.50h2.75v2.75h-2.75zM682.12 77.50h2.75v2.75h-2.75zM684.88 77.50h2.75v2.75h-2.75zM709.62 66.50h2.75v2.75h-2.75zM712.38 66.50h2.75v2.75h-2.75zM715.12 66.50h2.75v2.75h-2.75zM717.88 69.25h2.75v2.75h-2.75zM709.62 72.00h2.75v2.75h-2.75zM712.38 72.00h2.75v2.75h-2.75zM715.12 72.00h2.75v2.75h-2.75zM717.88 72.00h2.75v2.75h-2.75zM706.88 74.75h2.75v2.75h-2.75zM717.88 74.75h2.75v2.75h-2.75zM709.62 77.50h2.75v2.75h-2.75zM712.38 77.50h2.75v2.75h-2.75zM715.12 77.50h2.75v2.75h-2.75zM717.88 77.50h2.75v2.75h-2.75zM726.12 66.50h2.75v2.75h-2.75zM728.88 66.50h2.75v2.75h-2.75zM731.62 66.50h2.75v2.75h-2.75zM734.38 66.50h2.75v2.75h-2.75zM723.38 69.25h2.75v2.75h-2.75zM726.12 72.00h2.75v2.75h-2.75zM728.88 72.00h2.75v2.75h-2.75zM731.62 72.00h2.75v2.75h-2.75zM734.38 74.75h2.75v2.75h-2.75zM723.38 77.50h2.75v2.75h-2.75zM726.12 77.50h2.75v2.75h-2.75zM728.88 77.50h2.75v2.75h-2.75zM731.62 77.50h2.75v2.75h-2.75zM756.38 61.00h2.75v2.75h-2.75zM753.62 66.50h2.75v2.75h-2.75zM756.38 66.50h2.75v2.75h-2.75zM756.38 69.25h2.75v2.75h-2.75zM756.38 72.00h2.75v2.75h-2.75zM756.38 74.75h2.75v2.75h-2.75zM753.62 77.50h2.75v2.75h-2.75zM756.38 77.50h2.75v2.75h-2.75zM759.12 77.50h2.75v2.75h-2.75zM767.38 61.00h2.75v2.75h-2.75zM767.38 63.75h2.75v2.75h-2.75zM764.62 66.50h2.75v2.75h-2.75zM767.38 66.50h2.75v2.75h-2.75zM770.12 66.50h2.75v2.75h-2.75zM767.38 69.25h2.75v2.75h-2.75zM767.38 72.00h2.75v2.75h-2.75zM767.38 74.75h2.75v2.75h-2.75zM775.62 74.75h2.75v2.75h-2.75zM770.12 77.50h2.75v2.75h-2.75zM772.88 77.50h2.75v2.75h-2.75zM797.62 63.75h2.75v2.75h-2.75zM800.38 63.75h2.75v2.75h-2.75zM803.12 63.75h2.75v2.75h-2.75zM805.88 63.75h2.75v2.75h-2.75zM794.88 66.50h2.75v2.75h-2.75zM805.88 66.50h2.75v2.75h-2.75zM794.88 69.25h2.75v2.75h-2.75zM805.88 69.25h2.75v2.75h-2.75zM797.62 72.00h2.75v2.75h-2.75zM800.38 72.00h2.75v2.75h-2.75zM803.12 72.00h2.75v2.75h-2.75zM805.88 72.00h2.75v2.75h-2.75zM805.88 74.75h2.75v2.75h-2.75zM797.62 77.50h2.75v2.75h-2.75zM800.38 77.50h2.75v2.75h-2.75zM803.12 77.50h2.75v2.75h-2.75zM811.38 66.50h2.75v2.75h-2.75zM816.88 66.50h2.75v2.75h-2.75zM819.62 66.50h2.75v2.75h-2.75zM811.38 69.25h2.75v2.75h-2.75zM814.12 69.25h2.75v2.75h-2.75zM822.38 69.25h2.75v2.75h-2.75zM811.38 72.00h2.75v2.75h-2.75zM811.38 74.75h2.75v2.75h-2.75zM811.38 77.50h2.75v2.75h-2.75zM830.62 66.50h2.75v2.75h-2.75zM833.38 66.50h2.75v2.75h-2.75zM836.12 66.50h2.75v2.75h-2.75zM827.88 69.25h2.75v2.75h-2.75zM838.88 69.25h2.75v2.75h-2.75zM827.88 72.00h2.75v2.75h-2.75zM838.88 72.00h2.75v2.75h-2.75zM827.88 74.75h2.75v2.75h-2.75zM838.88 74.75h2.75v2.75h-2.75zM830.62 77.50h2.75v2.75h-2.75zM833.38 77.50h2.75v2.75h-2.75zM836.12 77.50h2.75v2.75h-2.75zM844.38 66.50h2.75v2.75h-2.75zM855.38 66.50h2.75v2.75h-2.75zM844.38 69.25h2.75v2.75h-2.75zM849.88 69.25h2.75v2.75h-2.75zM855.38 69.25h2.75v2.75h-2.75zM844.38 72.00h2.75v2.75h-2.75zM849.88 72.00h2.75v2.75h-2.75zM855.38 72.00h2.75v2.75h-2.75zM844.38 74.75h2.75v2.75h-2.75zM849.88 74.75h2.75v2.75h-2.75zM855.38 74.75h2.75v2.75h-2.75zM847.12 77.50h2.75v2.75h-2.75zM852.62 77.50h2.75v2.75h-2.75zM863.62 66.50h2.75v2.75h-2.75zM866.38 66.50h2.75v2.75h-2.75zM869.12 66.50h2.75v2.75h-2.75zM871.88 66.50h2.75v2.75h-2.75zM860.88 69.25h2.75v2.75h-2.75zM863.62 72.00h2.75v2.75h-2.75zM866.38 72.00h2.75v2.75h-2.75zM869.12 72.00h2.75v2.75h-2.75zM871.88 74.75h2.75v2.75h-2.75zM860.88 77.50h2.75v2.75h-2.75zM863.62 77.50h2.75v2.75h-2.75zM866.38 77.50h2.75v2.75h-2.75zM869.12 77.50h2.75v2.75h-2.75zM877.38 74.75h2.75v2.75h-2.75zM877.38 77.50h2.75v2.75h-2.75zM107.38 99.00h2.75v2.75h-2.75zM110.12 99.00h2.75v2.75h-2.75zM112.88 99.00h2.75v2.75h-2.75zM104.62 101.75h2.75v2.75h-2.75zM115.62 101.75h2.75v2.75h-2.75zM104.62 104.50h2.75v2.75h-2.75zM115.62 104.50h2.75v2.75h-2.75zM104.62 107.25h2.75v2.75h-2.75zM107.38 107.25h2.75v2.75h-2.75zM110.12 107.25h2.75v2.75h-2.75zM112.88 107.25h2.75v2.75h-2.75zM115.62 107.25h2.75v2.75h-2.75zM104.62 110.00h2.75v2.75h-2.75zM115.62 110.00h2.75v2.75h-2.75zM104.62 112.75h2.75v2.75h-2.75zM115.62 112.75h2.75v2.75h-2.75zM104.62 115.50h2.75v2.75h-2.75zM115.62 115.50h2.75v2.75h-2.75zM123.88 101.75h2.75v2.75h-2.75zM126.62 101.75h2.75v2.75h-2.75zM129.38 101.75h2.75v2.75h-2.75zM132.12 101.75h2.75v2.75h-2.75zM121.12 104.50h2.75v2.75h-2.75zM132.12 104.50h2.75v2.75h-2.75zM121.12 107.25h2.75v2.75h-2.75zM132.12 107.25h2.75v2.75h-2.75zM123.88 110.00h2.75v2.75h-2.75zM126.62 110.00h2.75v2.75h-2.75zM129.38 110.00h2.75v2.75h-2.75zM132.12 110.00h2.75v2.75h-2.75zM132.12 112.75h2.75v2.75h-2.75zM123.88 115.50h2.75v2.75h-2.75zM126.62 115.50h2.75v2.75h-2.75zM129.38 115.50h2.75v2.75h-2.75zM140.38 104.50h2.75v2.75h-2.75zM143.12 104.50h2.75v2.75h-2.75zM145.88 104.50h2.75v2.75h-2.75zM137.62 107.25h2.75v2.75h-2.75zM148.62 107.25h2.75v2.75h-2.75zM137.62 110.00h2.75v2.75h-2.75zM140.38 110.00h2.75v2.75h-2.75zM143.12 110.00h2.75v2.75h-2.75zM145.88 110.00h2.75v2.75h-2.75zM148.62 110.00h2.75v2.75h-2.75zM137.62 112.75h2.75v2.75h-2.75zM140.38 115.50h2.75v2.75h-2.75zM143.12 115.50h2.75v2.75h-2.75zM145.88 115.50h2.75v2.75h-2.75zM154.12 104.50h2.75v2.75h-2.75zM159.62 104.50h2.75v2.75h-2.75zM162.38 104.50h2.75v2.75h-2.75zM154.12 107.25h2.75v2.75h-2.75zM156.88 107.25h2.75v2.75h-2.75zM165.12 107.25h2.75v2.75h-2.75zM154.12 110.00h2.75v2.75h-2.75zM165.12 110.00h2.75v2.75h-2.75zM154.12 112.75h2.75v2.75h-2.75zM165.12 112.75h2.75v2.75h-2.75zM154.12 115.50h2.75v2.75h-2.75zM165.12 115.50h2.75v2.75h-2.75zM173.38 104.50h2.75v2.75h-2.75zM176.12 104.50h2.75v2.75h-2.75zM178.88 104.50h2.75v2.75h-2.75zM170.62 107.25h2.75v2.75h-2.75zM170.62 110.00h2.75v2.75h-2.75zM170.62 112.75h2.75v2.75h-2.75zM173.38 115.50h2.75v2.75h-2.75zM176.12 115.50h2.75v2.75h-2.75zM178.88 115.50h2.75v2.75h-2.75zM184.38 101.75h2.75v2.75h-2.75zM195.38 101.75h2.75v2.75h-2.75zM184.38 104.50h2.75v2.75h-2.75zM195.38 104.50h2.75v2.75h-2.75zM184.38 107.25h2.75v2.75h-2.75zM195.38 107.25h2.75v2.75h-2.75zM187.12 110.00h2.75v2.75h-2.75zM189.88 110.00h2.75v2.75h-2.75zM192.62 110.00h2.75v2.75h-2.75zM195.38 110.00h2.75v2.75h-2.75zM195.38 112.75h2.75v2.75h-2.75zM187.12 115.50h2.75v2.75h-2.75zM189.88 115.50h2.75v2.75h-2.75zM192.62 115.50h2.75v2.75h-2.75zM217.38 104.50h2.75v2.75h-2.75zM220.12 104.50h2.75v2.75h-2.75zM222.88 104.50h2.75v2.75h-2.75zM225.62 104.50h2.75v2.75h-2.75zM214.62 107.25h2.75v2.75h-2.75zM217.38 110.00h2.75v2.75h-2.75zM220.12 110.00h2.75v2.75h-2.75zM222.88 110.00h2.75v2.75h-2.75zM225.62 112.75h2.75v2.75h-2.75zM214.62 115.50h2.75v2.75h-2.75zM217.38 115.50h2.75v2.75h-2.75zM220.12 115.50h2.75v2.75h-2.75zM222.88 115.50h2.75v2.75h-2.75zM231.12 99.00h2.75v2.75h-2.75zM231.12 101.75h2.75v2.75h-2.75zM231.12 104.50h2.75v2.75h-2.75zM236.62 104.50h2.75v2.75h-2.75zM239.38 104.50h2.75v2.75h-2.75zM231.12 107.25h2.75v2.75h-2.75zM233.88 107.25h2.75v2.75h-2.75zM242.12 107.25h2.75v2.75h-2.75zM231.12 110.00h2.75v2.75h-2.75zM242.12 110.00h2.75v2.75h-2.75zM231.12 112.75h2.75v2.75h-2.75zM242.12 112.75h2.75v2.75h-2.75zM231.12 115.50h2.75v2.75h-2.75zM242.12 115.50h2.75v2.75h-2.75zM250.38 104.50h2.75v2.75h-2.75zM253.12 104.50h2.75v2.75h-2.75zM255.88 104.50h2.75v2.75h-2.75zM247.62 107.25h2.75v2.75h-2.75zM258.62 107.25h2.75v2.75h-2.75zM247.62 110.00h2.75v2.75h-2.75zM258.62 110.00h2.75v2.75h-2.75zM247.62 112.75h2.75v2.75h-2.75zM258.62 112.75h2.75v2.75h-2.75zM250.38 115.50h2.75v2.75h-2.75zM253.12 115.50h2.75v2.75h-2.75zM255.88 115.50h2.75v2.75h-2.75zM264.12 104.50h2.75v2.75h-2.75zM275.12 104.50h2.75v2.75h-2.75zM264.12 107.25h2.75v2.75h-2.75zM275.12 107.25h2.75v2.75h-2.75zM264.12 110.00h2.75v2.75h-2.75zM275.12 110.00h2.75v2.75h-2.75zM264.12 112.75h2.75v2.75h-2.75zM272.38 112.75h2.75v2.75h-2.75zM275.12 112.75h2.75v2.75h-2.75zM266.88 115.50h2.75v2.75h-2.75zM269.62 115.50h2.75v2.75h-2.75zM275.12 115.50h2.75v2.75h-2.75zM280.62 99.00h2.75v2.75h-2.75zM283.38 99.00h2.75v2.75h-2.75zM283.38 101.75h2.75v2.75h-2.75zM283.38 104.50h2.75v2.75h-2.75zM283.38 107.25h2.75v2.75h-2.75zM283.38 110.00h2.75v2.75h-2.75zM283.38 112.75h2.75v2.75h-2.75zM280.62 115.50h2.75v2.75h-2.75zM283.38 115.50h2.75v2.75h-2.75zM286.12 115.50h2.75v2.75h-2.75zM302.62 99.00h2.75v2.75h-2.75zM302.62 101.75h2.75v2.75h-2.75zM294.38 104.50h2.75v2.75h-2.75zM297.12 104.50h2.75v2.75h-2.75zM302.62 104.50h2.75v2.75h-2.75zM291.62 107.25h2.75v2.75h-2.75zM299.88 107.25h2.75v2.75h-2.75zM302.62 107.25h2.75v2.75h-2.75zM291.62 110.00h2.75v2.75h-2.75zM302.62 110.00h2.75v2.75h-2.75zM291.62 112.75h2.75v2.75h-2.75zM302.62 112.75h2.75v2.75h-2.75zM294.38 115.50h2.75v2.75h-2.75zM297.12 115.50h2.75v2.75h-2.75zM299.88 115.50h2.75v2.75h-2.75zM302.62 115.50h2.75v2.75h-2.75zM324.62 101.75h2.75v2.75h-2.75zM327.38 101.75h2.75v2.75h-2.75zM330.12 101.75h2.75v2.75h-2.75zM332.88 101.75h2.75v2.75h-2.75zM321.88 104.50h2.75v2.75h-2.75zM332.88 104.50h2.75v2.75h-2.75zM321.88 107.25h2.75v2.75h-2.75zM332.88 107.25h2.75v2.75h-2.75zM324.62 110.00h2.75v2.75h-2.75zM327.38 110.00h2.75v2.75h-2.75zM330.12 110.00h2.75v2.75h-2.75zM332.88 110.00h2.75v2.75h-2.75zM332.88 112.75h2.75v2.75h-2.75zM324.62 115.50h2.75v2.75h-2.75zM327.38 115.50h2.75v2.75h-2.75zM330.12 115.50h2.75v2.75h-2.75zM338.38 104.50h2.75v2.75h-2.75zM343.88 104.50h2.75v2.75h-2.75zM346.62 104.50h2.75v2.75h-2.75zM338.38 107.25h2.75v2.75h-2.75zM341.12 107.25h2.75v2.75h-2.75zM349.38 107.25h2.75v2.75h-2.75zM338.38 110.00h2.75v2.75h-2.75zM338.38 112.75h2.75v2.75h-2.75zM338.38 115.50h2.75v2.75h-2.75zM357.62 104.50h2.75v2.75h-2.75zM360.38 104.50h2.75v2.75h-2.75zM363.12 104.50h2.75v2.75h-2.75zM354.88 107.25h2.75v2.75h-2.75zM365.88 107.25h2.75v2.75h-2.75zM354.88 110.00h2.75v2.75h-2.75zM365.88 110.00h2.75v2.75h-2.75zM354.88 112.75h2.75v2.75h-2.75zM365.88 112.75h2.75v2.75h-2.75zM357.62 115.50h2.75v2.75h-2.75zM360.38 115.50h2.75v2.75h-2.75zM363.12 115.50h2.75v2.75h-2.75zM371.38 104.50h2.75v2.75h-2.75zM382.38 104.50h2.75v2.75h-2.75zM371.38 107.25h2.75v2.75h-2.75zM376.88 107.25h2.75v2.75h-2.75zM382.38 107.25h2.75v2.75h-2.75zM371.38 110.00h2.75v2.75h-2.75zM376.88 110.00h2.75v2.75h-2.75zM382.38 110.00h2.75v2.75h-2.75zM371.38 112.75h2.75v2.75h-2.75zM376.88 112.75h2.75v2.75h-2.75zM382.38 112.75h2.75v2.75h-2.75zM374.12 115.50h2.75v2.75h-2.75zM379.62 115.50h2.75v2.75h-2.75zM401.62 99.00h2.75v2.75h-2.75zM401.62 101.75h2.75v2.75h-2.75zM401.62 104.50h2.75v2.75h-2.75zM407.12 104.50h2.75v2.75h-2.75zM409.88 104.50h2.75v2.75h-2.75zM401.62 107.25h2.75v2.75h-2.75zM404.38 107.25h2.75v2.75h-2.75zM412.62 107.25h2.75v2.75h-2.75zM401.62 110.00h2.75v2.75h-2.75zM412.62 110.00h2.75v2.75h-2.75zM401.62 112.75h2.75v2.75h-2.75zM412.62 112.75h2.75v2.75h-2.75zM401.62 115.50h2.75v2.75h-2.75zM404.38 115.50h2.75v2.75h-2.75zM407.12 115.50h2.75v2.75h-2.75zM409.88 115.50h2.75v2.75h-2.75zM420.88 104.50h2.75v2.75h-2.75zM423.62 104.50h2.75v2.75h-2.75zM426.38 104.50h2.75v2.75h-2.75zM418.12 107.25h2.75v2.75h-2.75zM429.12 107.25h2.75v2.75h-2.75zM418.12 110.00h2.75v2.75h-2.75zM420.88 110.00h2.75v2.75h-2.75zM423.62 110.00h2.75v2.75h-2.75zM426.38 110.00h2.75v2.75h-2.75zM429.12 110.00h2.75v2.75h-2.75zM418.12 112.75h2.75v2.75h-2.75zM420.88 115.50h2.75v2.75h-2.75zM423.62 115.50h2.75v2.75h-2.75zM426.38 115.50h2.75v2.75h-2.75zM434.62 101.75h2.75v2.75h-2.75zM445.62 101.75h2.75v2.75h-2.75zM434.62 104.50h2.75v2.75h-2.75zM445.62 104.50h2.75v2.75h-2.75zM434.62 107.25h2.75v2.75h-2.75zM445.62 107.25h2.75v2.75h-2.75zM437.38 110.00h2.75v2.75h-2.75zM440.12 110.00h2.75v2.75h-2.75zM442.88 110.00h2.75v2.75h-2.75zM445.62 110.00h2.75v2.75h-2.75zM445.62 112.75h2.75v2.75h-2.75zM437.38 115.50h2.75v2.75h-2.75zM440.12 115.50h2.75v2.75h-2.75zM442.88 115.50h2.75v2.75h-2.75zM453.88 104.50h2.75v2.75h-2.75zM456.62 104.50h2.75v2.75h-2.75zM459.38 104.50h2.75v2.75h-2.75zM451.12 107.25h2.75v2.75h-2.75zM462.12 107.25h2.75v2.75h-2.75zM451.12 110.00h2.75v2.75h-2.75zM462.12 110.00h2.75v2.75h-2.75zM451.12 112.75h2.75v2.75h-2.75zM462.12 112.75h2.75v2.75h-2.75zM453.88 115.50h2.75v2.75h-2.75zM456.62 115.50h2.75v2.75h-2.75zM459.38 115.50h2.75v2.75h-2.75zM467.62 104.50h2.75v2.75h-2.75zM473.12 104.50h2.75v2.75h-2.75zM475.88 104.50h2.75v2.75h-2.75zM467.62 107.25h2.75v2.75h-2.75zM470.38 107.25h2.75v2.75h-2.75zM478.62 107.25h2.75v2.75h-2.75zM467.62 110.00h2.75v2.75h-2.75zM478.62 110.00h2.75v2.75h-2.75zM467.62 112.75h2.75v2.75h-2.75zM478.62 112.75h2.75v2.75h-2.75zM467.62 115.50h2.75v2.75h-2.75zM478.62 115.50h2.75v2.75h-2.75zM495.12 99.00h2.75v2.75h-2.75zM495.12 101.75h2.75v2.75h-2.75zM486.88 104.50h2.75v2.75h-2.75zM489.62 104.50h2.75v2.75h-2.75zM495.12 104.50h2.75v2.75h-2.75zM484.12 107.25h2.75v2.75h-2.75zM492.38 107.25h2.75v2.75h-2.75zM495.12 107.25h2.75v2.75h-2.75zM484.12 110.00h2.75v2.75h-2.75zM495.12 110.00h2.75v2.75h-2.75zM484.12 112.75h2.75v2.75h-2.75zM495.12 112.75h2.75v2.75h-2.75zM486.88 115.50h2.75v2.75h-2.75zM489.62 115.50h2.75v2.75h-2.75zM492.38 115.50h2.75v2.75h-2.75zM495.12 115.50h2.75v2.75h-2.75zM517.12 99.00h2.75v2.75h-2.75zM517.12 101.75h2.75v2.75h-2.75zM514.38 104.50h2.75v2.75h-2.75zM517.12 104.50h2.75v2.75h-2.75zM519.88 104.50h2.75v2.75h-2.75zM517.12 107.25h2.75v2.75h-2.75zM517.12 110.00h2.75v2.75h-2.75zM517.12 112.75h2.75v2.75h-2.75zM525.38 112.75h2.75v2.75h-2.75zM519.88 115.50h2.75v2.75h-2.75zM522.62 115.50h2.75v2.75h-2.75zM533.62 104.50h2.75v2.75h-2.75zM536.38 104.50h2.75v2.75h-2.75zM539.12 104.50h2.75v2.75h-2.75zM530.88 107.25h2.75v2.75h-2.75zM541.88 107.25h2.75v2.75h-2.75zM530.88 110.00h2.75v2.75h-2.75zM541.88 110.00h2.75v2.75h-2.75zM530.88 112.75h2.75v2.75h-2.75zM541.88 112.75h2.75v2.75h-2.75zM533.62 115.50h2.75v2.75h-2.75zM536.38 115.50h2.75v2.75h-2.75zM539.12 115.50h2.75v2.75h-2.75zM550.12 104.50h2.75v2.75h-2.75zM552.88 104.50h2.75v2.75h-2.75zM555.62 104.50h2.75v2.75h-2.75zM547.38 107.25h2.75v2.75h-2.75zM558.38 107.25h2.75v2.75h-2.75zM547.38 110.00h2.75v2.75h-2.75zM558.38 110.00h2.75v2.75h-2.75zM547.38 112.75h2.75v2.75h-2.75zM558.38 112.75h2.75v2.75h-2.75zM550.12 115.50h2.75v2.75h-2.75zM552.88 115.50h2.75v2.75h-2.75zM555.62 115.50h2.75v2.75h-2.75zM563.88 99.00h2.75v2.75h-2.75zM566.62 99.00h2.75v2.75h-2.75zM566.62 101.75h2.75v2.75h-2.75zM566.62 104.50h2.75v2.75h-2.75zM566.62 107.25h2.75v2.75h-2.75zM566.62 110.00h2.75v2.75h-2.75zM566.62 112.75h2.75v2.75h-2.75zM563.88 115.50h2.75v2.75h-2.75zM566.62 115.50h2.75v2.75h-2.75zM569.38 115.50h2.75v2.75h-2.75zM577.62 104.50h2.75v2.75h-2.75zM580.38 104.50h2.75v2.75h-2.75zM583.12 104.50h2.75v2.75h-2.75zM585.88 104.50h2.75v2.75h-2.75zM574.88 107.25h2.75v2.75h-2.75zM577.62 110.00h2.75v2.75h-2.75zM580.38 110.00h2.75v2.75h-2.75zM583.12 110.00h2.75v2.75h-2.75zM585.88 112.75h2.75v2.75h-2.75zM574.88 115.50h2.75v2.75h-2.75zM577.62 115.50h2.75v2.75h-2.75zM580.38 115.50h2.75v2.75h-2.75zM583.12 115.50h2.75v2.75h-2.75zM607.88 99.00h2.75v2.75h-2.75zM605.12 104.50h2.75v2.75h-2.75zM607.88 104.50h2.75v2.75h-2.75zM607.88 107.25h2.75v2.75h-2.75zM607.88 110.00h2.75v2.75h-2.75zM607.88 112.75h2.75v2.75h-2.75zM605.12 115.50h2.75v2.75h-2.75zM607.88 115.50h2.75v2.75h-2.75zM610.62 115.50h2.75v2.75h-2.75zM616.12 104.50h2.75v2.75h-2.75zM621.62 104.50h2.75v2.75h-2.75zM624.38 104.50h2.75v2.75h-2.75zM616.12 107.25h2.75v2.75h-2.75zM618.88 107.25h2.75v2.75h-2.75zM627.12 107.25h2.75v2.75h-2.75zM616.12 110.00h2.75v2.75h-2.75zM627.12 110.00h2.75v2.75h-2.75zM616.12 112.75h2.75v2.75h-2.75zM627.12 112.75h2.75v2.75h-2.75zM616.12 115.50h2.75v2.75h-2.75zM627.12 115.50h2.75v2.75h-2.75zM635.38 99.00h2.75v2.75h-2.75zM635.38 101.75h2.75v2.75h-2.75zM632.62 104.50h2.75v2.75h-2.75zM635.38 104.50h2.75v2.75h-2.75zM638.12 104.50h2.75v2.75h-2.75zM635.38 107.25h2.75v2.75h-2.75zM635.38 110.00h2.75v2.75h-2.75zM635.38 112.75h2.75v2.75h-2.75zM643.62 112.75h2.75v2.75h-2.75zM638.12 115.50h2.75v2.75h-2.75zM640.88 115.50h2.75v2.75h-2.75zM651.88 104.50h2.75v2.75h-2.75zM654.62 104.50h2.75v2.75h-2.75zM657.38 104.50h2.75v2.75h-2.75zM649.12 107.25h2.75v2.75h-2.75zM660.12 107.25h2.75v2.75h-2.75zM649.12 110.00h2.75v2.75h-2.75zM660.12 110.00h2.75v2.75h-2.75zM649.12 112.75h2.75v2.75h-2.75zM660.12 112.75h2.75v2.75h-2.75zM651.88 115.50h2.75v2.75h-2.75zM654.62 115.50h2.75v2.75h-2.75zM657.38 115.50h2.75v2.75h-2.75zM682.12 104.50h2.75v2.75h-2.75zM684.88 104.50h2.75v2.75h-2.75zM687.62 104.50h2.75v2.75h-2.75zM690.38 104.50h2.75v2.75h-2.75zM679.38 107.25h2.75v2.75h-2.75zM682.12 110.00h2.75v2.75h-2.75zM684.88 110.00h2.75v2.75h-2.75zM687.62 110.00h2.75v2.75h-2.75zM690.38 112.75h2.75v2.75h-2.75zM679.38 115.50h2.75v2.75h-2.75zM682.12 115.50h2.75v2.75h-2.75zM684.88 115.50h2.75v2.75h-2.75zM687.62 115.50h2.75v2.75h-2.75zM698.62 104.50h2.75v2.75h-2.75zM701.38 104.50h2.75v2.75h-2.75zM704.12 104.50h2.75v2.75h-2.75zM695.88 107.25h2.75v2.75h-2.75zM706.88 107.25h2.75v2.75h-2.75zM695.88 110.00h2.75v2.75h-2.75zM698.62 110.00h2.75v2.75h-2.75zM701.38 110.00h2.75v2.75h-2.75zM704.12 110.00h2.75v2.75h-2.75zM706.88 110.00h2.75v2.75h-2.75zM695.88 112.75h2.75v2.75h-2.75zM698.62 115.50h2.75v2.75h-2.75zM701.38 115.50h2.75v2.75h-2.75zM704.12 115.50h2.75v2.75h-2.75zM712.38 99.00h2.75v2.75h-2.75zM715.12 99.00h2.75v2.75h-2.75zM715.12 101.75h2.75v2.75h-2.75zM715.12 104.50h2.75v2.75h-2.75zM715.12 107.25h2.75v2.75h-2.75zM715.12 110.00h2.75v2.75h-2.75zM715.12 112.75h2.75v2.75h-2.75zM712.38 115.50h2.75v2.75h-2.75zM715.12 115.50h2.75v2.75h-2.75zM717.88 115.50h2.75v2.75h-2.75zM728.88 99.00h2.75v2.75h-2.75zM731.62 99.00h2.75v2.75h-2.75zM726.12 101.75h2.75v2.75h-2.75zM734.38 101.75h2.75v2.75h-2.75zM726.12 104.50h2.75v2.75h-2.75zM723.38 107.25h2.75v2.75h-2.75zM726.12 107.25h2.75v2.75h-2.75zM728.88 107.25h2.75v2.75h-2.75zM726.12 110.00h2.75v2.75h-2.75zM726.12 112.75h2.75v2.75h-2.75zM726.12 115.50h2.75v2.75h-2.75zM739.88 107.25h2.75v2.75h-2.75zM742.62 107.25h2.75v2.75h-2.75zM745.38 107.25h2.75v2.75h-2.75zM748.12 107.25h2.75v2.75h-2.75zM750.88 107.25h2.75v2.75h-2.75zM759.12 104.50h2.75v2.75h-2.75zM761.88 104.50h2.75v2.75h-2.75zM764.62 104.50h2.75v2.75h-2.75zM767.38 107.25h2.75v2.75h-2.75zM759.12 110.00h2.75v2.75h-2.75zM761.88 110.00h2.75v2.75h-2.75zM764.62 110.00h2.75v2.75h-2.75zM767.38 110.00h2.75v2.75h-2.75zM756.38 112.75h2.75v2.75h-2.75zM767.38 112.75h2.75v2.75h-2.75zM759.12 115.50h2.75v2.75h-2.75zM761.88 115.50h2.75v2.75h-2.75zM764.62 115.50h2.75v2.75h-2.75zM767.38 115.50h2.75v2.75h-2.75zM775.62 101.75h2.75v2.75h-2.75zM778.38 101.75h2.75v2.75h-2.75zM781.12 101.75h2.75v2.75h-2.75zM783.88 101.75h2.75v2.75h-2.75zM772.88 104.50h2.75v2.75h-2.75zM783.88 104.50h2.75v2.75h-2.75zM772.88 107.25h2.75v2.75h-2.75zM783.88 107.25h2.75v2.75h-2.75zM775.62 110.00h2.75v2.75h-2.75zM778.38 110.00h2.75v2.75h-2.75zM781.12 110.00h2.75v2.75h-2.75zM783.88 110.00h2.75v2.75h-2.75zM783.88 112.75h2.75v2.75h-2.75zM775.62 115.50h2.75v2.75h-2.75zM778.38 115.50h2.75v2.75h-2.75zM781.12 115.50h2.75v2.75h-2.75zM792.12 104.50h2.75v2.75h-2.75zM794.88 104.50h2.75v2.75h-2.75zM797.62 104.50h2.75v2.75h-2.75zM789.38 107.25h2.75v2.75h-2.75zM800.38 107.25h2.75v2.75h-2.75zM789.38 110.00h2.75v2.75h-2.75zM792.12 110.00h2.75v2.75h-2.75zM794.88 110.00h2.75v2.75h-2.75zM797.62 110.00h2.75v2.75h-2.75zM800.38 110.00h2.75v2.75h-2.75zM789.38 112.75h2.75v2.75h-2.75zM792.12 115.50h2.75v2.75h-2.75zM794.88 115.50h2.75v2.75h-2.75zM797.62 115.50h2.75v2.75h-2.75zM805.88 104.50h2.75v2.75h-2.75zM811.38 104.50h2.75v2.75h-2.75zM814.12 104.50h2.75v2.75h-2.75zM805.88 107.25h2.75v2.75h-2.75zM808.62 107.25h2.75v2.75h-2.75zM816.88 107.25h2.75v2.75h-2.75zM805.88 110.00h2.75v2.75h-2.75zM816.88 110.00h2.75v2.75h-2.75zM805.88 112.75h2.75v2.75h-2.75zM816.88 112.75h2.75v2.75h-2.75zM805.88 115.50h2.75v2.75h-2.75zM816.88 115.50h2.75v2.75h-2.75zM825.12 104.50h2.75v2.75h-2.75zM827.88 104.50h2.75v2.75h-2.75zM830.62 104.50h2.75v2.75h-2.75zM822.38 107.25h2.75v2.75h-2.75zM822.38 110.00h2.75v2.75h-2.75zM822.38 112.75h2.75v2.75h-2.75zM825.12 115.50h2.75v2.75h-2.75zM827.88 115.50h2.75v2.75h-2.75zM830.62 115.50h2.75v2.75h-2.75zM836.12 101.75h2.75v2.75h-2.75zM847.12 101.75h2.75v2.75h-2.75zM836.12 104.50h2.75v2.75h-2.75zM847.12 104.50h2.75v2.75h-2.75zM836.12 107.25h2.75v2.75h-2.75zM847.12 107.25h2.75v2.75h-2.75zM838.88 110.00h2.75v2.75h-2.75zM841.62 110.00h2.75v2.75h-2.75zM844.38 110.00h2.75v2.75h-2.75zM847.12 110.00h2.75v2.75h-2.75zM847.12 112.75h2.75v2.75h-2.75zM838.88 115.50h2.75v2.75h-2.75zM841.62 115.50h2.75v2.75h-2.75zM844.38 115.50h2.75v2.75h-2.75zM852.62 112.75h2.75v2.75h-2.75zM852.62 115.50h2.75v2.75h-2.75z"/>
      <path fill="#3b2117" d="M79.88 61.00h2.75v2.75h-2.75zM90.88 61.00h2.75v2.75h-2.75zM79.88 63.75h2.75v2.75h-2.75zM88.12 63.75h2.75v2.75h-2.75zM79.88 66.50h2.75v2.75h-2.75zM85.38 66.50h2.75v2.75h-2.75zM79.88 69.25h2.75v2.75h-2.75zM82.62 69.25h2.75v2.75h-2.75zM79.88 72.00h2.75v2.75h-2.75zM85.38 72.00h2.75v2.75h-2.75zM79.88 74.75h2.75v2.75h-2.75zM88.12 74.75h2.75v2.75h-2.75zM79.88 77.50h2.75v2.75h-2.75zM90.88 77.50h2.75v2.75h-2.75zM96.38 66.50h2.75v2.75h-2.75zM101.88 66.50h2.75v2.75h-2.75zM104.62 66.50h2.75v2.75h-2.75zM96.38 69.25h2.75v2.75h-2.75zM99.12 69.25h2.75v2.75h-2.75zM107.38 69.25h2.75v2.75h-2.75zM96.38 72.00h2.75v2.75h-2.75zM107.38 72.00h2.75v2.75h-2.75zM96.38 74.75h2.75v2.75h-2.75zM107.38 74.75h2.75v2.75h-2.75zM96.38 77.50h2.75v2.75h-2.75zM107.38 77.50h2.75v2.75h-2.75zM115.62 66.50h2.75v2.75h-2.75zM118.38 66.50h2.75v2.75h-2.75zM121.12 66.50h2.75v2.75h-2.75zM112.88 69.25h2.75v2.75h-2.75zM123.88 69.25h2.75v2.75h-2.75zM112.88 72.00h2.75v2.75h-2.75zM123.88 72.00h2.75v2.75h-2.75zM112.88 74.75h2.75v2.75h-2.75zM123.88 74.75h2.75v2.75h-2.75zM115.62 77.50h2.75v2.75h-2.75zM118.38 77.50h2.75v2.75h-2.75zM121.12 77.50h2.75v2.75h-2.75zM129.38 66.50h2.75v2.75h-2.75zM140.38 66.50h2.75v2.75h-2.75zM129.38 69.25h2.75v2.75h-2.75zM134.88 69.25h2.75v2.75h-2.75zM140.38 69.25h2.75v2.75h-2.75zM129.38 72.00h2.75v2.75h-2.75zM134.88 72.00h2.75v2.75h-2.75zM140.38 72.00h2.75v2.75h-2.75zM129.38 74.75h2.75v2.75h-2.75zM134.88 74.75h2.75v2.75h-2.75zM140.38 74.75h2.75v2.75h-2.75zM132.12 77.50h2.75v2.75h-2.75zM137.62 77.50h2.75v2.75h-2.75zM145.88 61.00h2.75v2.75h-2.75zM148.62 61.00h2.75v2.75h-2.75zM148.62 63.75h2.75v2.75h-2.75zM148.62 66.50h2.75v2.75h-2.75zM148.62 69.25h2.75v2.75h-2.75zM148.62 72.00h2.75v2.75h-2.75zM148.62 74.75h2.75v2.75h-2.75zM145.88 77.50h2.75v2.75h-2.75zM148.62 77.50h2.75v2.75h-2.75zM151.38 77.50h2.75v2.75h-2.75zM159.62 66.50h2.75v2.75h-2.75zM162.38 66.50h2.75v2.75h-2.75zM165.12 66.50h2.75v2.75h-2.75zM156.88 69.25h2.75v2.75h-2.75zM167.88 69.25h2.75v2.75h-2.75zM156.88 72.00h2.75v2.75h-2.75zM159.62 72.00h2.75v2.75h-2.75zM162.38 72.00h2.75v2.75h-2.75zM165.12 72.00h2.75v2.75h-2.75zM167.88 72.00h2.75v2.75h-2.75zM156.88 74.75h2.75v2.75h-2.75zM159.62 77.50h2.75v2.75h-2.75zM162.38 77.50h2.75v2.75h-2.75zM165.12 77.50h2.75v2.75h-2.75zM184.38 61.00h2.75v2.75h-2.75zM184.38 63.75h2.75v2.75h-2.75zM176.12 66.50h2.75v2.75h-2.75zM178.88 66.50h2.75v2.75h-2.75zM184.38 66.50h2.75v2.75h-2.75zM173.38 69.25h2.75v2.75h-2.75zM181.62 69.25h2.75v2.75h-2.75zM184.38 69.25h2.75v2.75h-2.75zM173.38 72.00h2.75v2.75h-2.75zM184.38 72.00h2.75v2.75h-2.75zM173.38 74.75h2.75v2.75h-2.75zM184.38 74.75h2.75v2.75h-2.75zM176.12 77.50h2.75v2.75h-2.75zM178.88 77.50h2.75v2.75h-2.75zM181.62 77.50h2.75v2.75h-2.75zM184.38 77.50h2.75v2.75h-2.75zM192.62 63.75h2.75v2.75h-2.75zM195.38 63.75h2.75v2.75h-2.75zM198.12 63.75h2.75v2.75h-2.75zM200.88 63.75h2.75v2.75h-2.75zM189.88 66.50h2.75v2.75h-2.75zM200.88 66.50h2.75v2.75h-2.75zM189.88 69.25h2.75v2.75h-2.75zM200.88 69.25h2.75v2.75h-2.75zM192.62 72.00h2.75v2.75h-2.75zM195.38 72.00h2.75v2.75h-2.75zM198.12 72.00h2.75v2.75h-2.75zM200.88 72.00h2.75v2.75h-2.75zM200.88 74.75h2.75v2.75h-2.75zM192.62 77.50h2.75v2.75h-2.75zM195.38 77.50h2.75v2.75h-2.75zM198.12 77.50h2.75v2.75h-2.75zM209.12 66.50h2.75v2.75h-2.75zM211.88 66.50h2.75v2.75h-2.75zM214.62 66.50h2.75v2.75h-2.75zM206.38 69.25h2.75v2.75h-2.75zM217.38 69.25h2.75v2.75h-2.75zM206.38 72.00h2.75v2.75h-2.75zM209.12 72.00h2.75v2.75h-2.75zM211.88 72.00h2.75v2.75h-2.75zM214.62 72.00h2.75v2.75h-2.75zM217.38 72.00h2.75v2.75h-2.75zM206.38 74.75h2.75v2.75h-2.75zM209.12 77.50h2.75v2.75h-2.75zM211.88 77.50h2.75v2.75h-2.75zM214.62 77.50h2.75v2.75h-2.75zM239.38 66.50h2.75v2.75h-2.75zM242.12 66.50h2.75v2.75h-2.75zM244.88 66.50h2.75v2.75h-2.75zM247.62 66.50h2.75v2.75h-2.75zM236.62 69.25h2.75v2.75h-2.75zM239.38 72.00h2.75v2.75h-2.75zM242.12 72.00h2.75v2.75h-2.75zM244.88 72.00h2.75v2.75h-2.75zM247.62 74.75h2.75v2.75h-2.75zM236.62 77.50h2.75v2.75h-2.75zM239.38 77.50h2.75v2.75h-2.75zM242.12 77.50h2.75v2.75h-2.75zM244.88 77.50h2.75v2.75h-2.75zM253.12 61.00h2.75v2.75h-2.75zM253.12 63.75h2.75v2.75h-2.75zM253.12 66.50h2.75v2.75h-2.75zM258.62 66.50h2.75v2.75h-2.75zM261.38 66.50h2.75v2.75h-2.75zM253.12 69.25h2.75v2.75h-2.75zM255.88 69.25h2.75v2.75h-2.75zM264.12 69.25h2.75v2.75h-2.75zM253.12 72.00h2.75v2.75h-2.75zM264.12 72.00h2.75v2.75h-2.75zM253.12 74.75h2.75v2.75h-2.75zM264.12 74.75h2.75v2.75h-2.75zM253.12 77.50h2.75v2.75h-2.75zM264.12 77.50h2.75v2.75h-2.75zM272.38 66.50h2.75v2.75h-2.75zM275.12 66.50h2.75v2.75h-2.75zM277.88 66.50h2.75v2.75h-2.75zM269.62 69.25h2.75v2.75h-2.75zM280.62 69.25h2.75v2.75h-2.75zM269.62 72.00h2.75v2.75h-2.75zM280.62 72.00h2.75v2.75h-2.75zM269.62 74.75h2.75v2.75h-2.75zM280.62 74.75h2.75v2.75h-2.75zM272.38 77.50h2.75v2.75h-2.75zM275.12 77.50h2.75v2.75h-2.75zM277.88 77.50h2.75v2.75h-2.75zM286.12 66.50h2.75v2.75h-2.75zM297.12 66.50h2.75v2.75h-2.75zM286.12 69.25h2.75v2.75h-2.75zM297.12 69.25h2.75v2.75h-2.75zM286.12 72.00h2.75v2.75h-2.75zM297.12 72.00h2.75v2.75h-2.75zM286.12 74.75h2.75v2.75h-2.75zM294.38 74.75h2.75v2.75h-2.75zM297.12 74.75h2.75v2.75h-2.75zM288.88 77.50h2.75v2.75h-2.75zM291.62 77.50h2.75v2.75h-2.75zM297.12 77.50h2.75v2.75h-2.75zM302.62 61.00h2.75v2.75h-2.75zM305.38 61.00h2.75v2.75h-2.75zM305.38 63.75h2.75v2.75h-2.75zM305.38 66.50h2.75v2.75h-2.75zM305.38 69.25h2.75v2.75h-2.75zM305.38 72.00h2.75v2.75h-2.75zM305.38 74.75h2.75v2.75h-2.75zM302.62 77.50h2.75v2.75h-2.75zM305.38 77.50h2.75v2.75h-2.75zM308.12 77.50h2.75v2.75h-2.75zM324.62 61.00h2.75v2.75h-2.75zM324.62 63.75h2.75v2.75h-2.75zM316.38 66.50h2.75v2.75h-2.75zM319.12 66.50h2.75v2.75h-2.75zM324.62 66.50h2.75v2.75h-2.75zM313.62 69.25h2.75v2.75h-2.75zM321.88 69.25h2.75v2.75h-2.75zM324.62 69.25h2.75v2.75h-2.75zM313.62 72.00h2.75v2.75h-2.75zM324.62 72.00h2.75v2.75h-2.75zM313.62 74.75h2.75v2.75h-2.75zM324.62 74.75h2.75v2.75h-2.75zM316.38 77.50h2.75v2.75h-2.75zM319.12 77.50h2.75v2.75h-2.75zM321.88 77.50h2.75v2.75h-2.75zM324.62 77.50h2.75v2.75h-2.75zM354.88 61.00h2.75v2.75h-2.75zM354.88 63.75h2.75v2.75h-2.75zM346.62 66.50h2.75v2.75h-2.75zM349.38 66.50h2.75v2.75h-2.75zM354.88 66.50h2.75v2.75h-2.75zM343.88 69.25h2.75v2.75h-2.75zM352.12 69.25h2.75v2.75h-2.75zM354.88 69.25h2.75v2.75h-2.75zM343.88 72.00h2.75v2.75h-2.75zM354.88 72.00h2.75v2.75h-2.75zM343.88 74.75h2.75v2.75h-2.75zM354.88 74.75h2.75v2.75h-2.75zM346.62 77.50h2.75v2.75h-2.75zM349.38 77.50h2.75v2.75h-2.75zM352.12 77.50h2.75v2.75h-2.75zM354.88 77.50h2.75v2.75h-2.75zM363.12 66.50h2.75v2.75h-2.75zM365.88 66.50h2.75v2.75h-2.75zM368.62 66.50h2.75v2.75h-2.75zM360.38 69.25h2.75v2.75h-2.75zM371.38 69.25h2.75v2.75h-2.75zM360.38 72.00h2.75v2.75h-2.75zM363.12 72.00h2.75v2.75h-2.75zM365.88 72.00h2.75v2.75h-2.75zM368.62 72.00h2.75v2.75h-2.75zM371.38 72.00h2.75v2.75h-2.75zM360.38 74.75h2.75v2.75h-2.75zM363.12 77.50h2.75v2.75h-2.75zM365.88 77.50h2.75v2.75h-2.75zM368.62 77.50h2.75v2.75h-2.75zM379.62 66.50h2.75v2.75h-2.75zM382.38 66.50h2.75v2.75h-2.75zM385.12 66.50h2.75v2.75h-2.75zM376.88 69.25h2.75v2.75h-2.75zM387.88 69.25h2.75v2.75h-2.75zM376.88 72.00h2.75v2.75h-2.75zM379.62 72.00h2.75v2.75h-2.75zM382.38 72.00h2.75v2.75h-2.75zM385.12 72.00h2.75v2.75h-2.75zM387.88 72.00h2.75v2.75h-2.75zM376.88 74.75h2.75v2.75h-2.75zM379.62 77.50h2.75v2.75h-2.75zM382.38 77.50h2.75v2.75h-2.75zM385.12 77.50h2.75v2.75h-2.75zM393.38 63.75h2.75v2.75h-2.75zM396.12 63.75h2.75v2.75h-2.75zM398.88 63.75h2.75v2.75h-2.75zM401.62 63.75h2.75v2.75h-2.75zM393.38 66.50h2.75v2.75h-2.75zM404.38 66.50h2.75v2.75h-2.75zM393.38 69.25h2.75v2.75h-2.75zM404.38 69.25h2.75v2.75h-2.75zM393.38 72.00h2.75v2.75h-2.75zM396.12 72.00h2.75v2.75h-2.75zM398.88 72.00h2.75v2.75h-2.75zM401.62 72.00h2.75v2.75h-2.75zM393.38 74.75h2.75v2.75h-2.75zM393.38 77.50h2.75v2.75h-2.75zM412.62 66.50h2.75v2.75h-2.75zM415.38 66.50h2.75v2.75h-2.75zM418.12 66.50h2.75v2.75h-2.75zM409.88 69.25h2.75v2.75h-2.75zM420.88 69.25h2.75v2.75h-2.75zM409.88 72.00h2.75v2.75h-2.75zM412.62 72.00h2.75v2.75h-2.75zM415.38 72.00h2.75v2.75h-2.75zM418.12 72.00h2.75v2.75h-2.75zM420.88 72.00h2.75v2.75h-2.75zM409.88 74.75h2.75v2.75h-2.75zM412.62 77.50h2.75v2.75h-2.75zM415.38 77.50h2.75v2.75h-2.75zM418.12 77.50h2.75v2.75h-2.75zM426.38 66.50h2.75v2.75h-2.75zM431.88 66.50h2.75v2.75h-2.75zM434.62 66.50h2.75v2.75h-2.75zM426.38 69.25h2.75v2.75h-2.75zM429.12 69.25h2.75v2.75h-2.75zM437.38 69.25h2.75v2.75h-2.75zM426.38 72.00h2.75v2.75h-2.75zM437.38 72.00h2.75v2.75h-2.75zM426.38 74.75h2.75v2.75h-2.75zM437.38 74.75h2.75v2.75h-2.75zM426.38 77.50h2.75v2.75h-2.75zM437.38 77.50h2.75v2.75h-2.75zM456.62 66.50h2.75v2.75h-2.75zM467.62 66.50h2.75v2.75h-2.75zM456.62 69.25h2.75v2.75h-2.75zM462.12 69.25h2.75v2.75h-2.75zM467.62 69.25h2.75v2.75h-2.75zM456.62 72.00h2.75v2.75h-2.75zM462.12 72.00h2.75v2.75h-2.75zM467.62 72.00h2.75v2.75h-2.75zM456.62 74.75h2.75v2.75h-2.75zM462.12 74.75h2.75v2.75h-2.75zM467.62 74.75h2.75v2.75h-2.75zM459.38 77.50h2.75v2.75h-2.75zM464.88 77.50h2.75v2.75h-2.75zM475.88 61.00h2.75v2.75h-2.75zM473.12 66.50h2.75v2.75h-2.75zM475.88 66.50h2.75v2.75h-2.75zM475.88 69.25h2.75v2.75h-2.75zM475.88 72.00h2.75v2.75h-2.75zM475.88 74.75h2.75v2.75h-2.75zM473.12 77.50h2.75v2.75h-2.75zM475.88 77.50h2.75v2.75h-2.75zM478.62 77.50h2.75v2.75h-2.75zM486.88 61.00h2.75v2.75h-2.75zM486.88 63.75h2.75v2.75h-2.75zM484.12 66.50h2.75v2.75h-2.75zM486.88 66.50h2.75v2.75h-2.75zM489.62 66.50h2.75v2.75h-2.75zM486.88 69.25h2.75v2.75h-2.75zM486.88 72.00h2.75v2.75h-2.75zM486.88 74.75h2.75v2.75h-2.75zM495.12 74.75h2.75v2.75h-2.75zM489.62 77.50h2.75v2.75h-2.75zM492.38 77.50h2.75v2.75h-2.75zM500.62 61.00h2.75v2.75h-2.75zM500.62 63.75h2.75v2.75h-2.75zM500.62 66.50h2.75v2.75h-2.75zM506.12 66.50h2.75v2.75h-2.75zM508.88 66.50h2.75v2.75h-2.75zM500.62 69.25h2.75v2.75h-2.75zM503.38 69.25h2.75v2.75h-2.75zM511.62 69.25h2.75v2.75h-2.75zM500.62 72.00h2.75v2.75h-2.75zM511.62 72.00h2.75v2.75h-2.75zM500.62 74.75h2.75v2.75h-2.75zM511.62 74.75h2.75v2.75h-2.75zM500.62 77.50h2.75v2.75h-2.75zM511.62 77.50h2.75v2.75h-2.75zM530.88 63.75h2.75v2.75h-2.75zM533.62 63.75h2.75v2.75h-2.75zM536.38 63.75h2.75v2.75h-2.75zM539.12 63.75h2.75v2.75h-2.75zM530.88 66.50h2.75v2.75h-2.75zM541.88 66.50h2.75v2.75h-2.75zM530.88 69.25h2.75v2.75h-2.75zM541.88 69.25h2.75v2.75h-2.75zM530.88 72.00h2.75v2.75h-2.75zM533.62 72.00h2.75v2.75h-2.75zM536.38 72.00h2.75v2.75h-2.75zM539.12 72.00h2.75v2.75h-2.75zM530.88 74.75h2.75v2.75h-2.75zM530.88 77.50h2.75v2.75h-2.75zM547.38 66.50h2.75v2.75h-2.75zM552.88 66.50h2.75v2.75h-2.75zM555.62 66.50h2.75v2.75h-2.75zM547.38 69.25h2.75v2.75h-2.75zM550.12 69.25h2.75v2.75h-2.75zM558.38 69.25h2.75v2.75h-2.75zM547.38 72.00h2.75v2.75h-2.75zM547.38 74.75h2.75v2.75h-2.75zM547.38 77.50h2.75v2.75h-2.75zM566.62 66.50h2.75v2.75h-2.75zM569.38 66.50h2.75v2.75h-2.75zM572.12 66.50h2.75v2.75h-2.75zM563.88 69.25h2.75v2.75h-2.75zM574.88 69.25h2.75v2.75h-2.75zM563.88 72.00h2.75v2.75h-2.75zM574.88 72.00h2.75v2.75h-2.75zM563.88 74.75h2.75v2.75h-2.75zM574.88 74.75h2.75v2.75h-2.75zM566.62 77.50h2.75v2.75h-2.75zM569.38 77.50h2.75v2.75h-2.75zM572.12 77.50h2.75v2.75h-2.75zM580.38 66.50h2.75v2.75h-2.75zM591.38 66.50h2.75v2.75h-2.75zM580.38 69.25h2.75v2.75h-2.75zM591.38 69.25h2.75v2.75h-2.75zM580.38 72.00h2.75v2.75h-2.75zM591.38 72.00h2.75v2.75h-2.75zM583.12 74.75h2.75v2.75h-2.75zM588.62 74.75h2.75v2.75h-2.75zM585.88 77.50h2.75v2.75h-2.75zM599.62 66.50h2.75v2.75h-2.75zM602.38 66.50h2.75v2.75h-2.75zM605.12 66.50h2.75v2.75h-2.75zM596.88 69.25h2.75v2.75h-2.75zM607.88 69.25h2.75v2.75h-2.75zM596.88 72.00h2.75v2.75h-2.75zM599.62 72.00h2.75v2.75h-2.75zM602.38 72.00h2.75v2.75h-2.75zM605.12 72.00h2.75v2.75h-2.75zM607.88 72.00h2.75v2.75h-2.75zM596.88 74.75h2.75v2.75h-2.75zM599.62 77.50h2.75v2.75h-2.75zM602.38 77.50h2.75v2.75h-2.75zM605.12 77.50h2.75v2.75h-2.75zM613.38 66.50h2.75v2.75h-2.75zM618.88 66.50h2.75v2.75h-2.75zM621.62 66.50h2.75v2.75h-2.75zM613.38 69.25h2.75v2.75h-2.75zM616.12 69.25h2.75v2.75h-2.75zM624.38 69.25h2.75v2.75h-2.75zM613.38 72.00h2.75v2.75h-2.75zM624.38 72.00h2.75v2.75h-2.75zM613.38 74.75h2.75v2.75h-2.75zM624.38 74.75h2.75v2.75h-2.75zM613.38 77.50h2.75v2.75h-2.75zM624.38 77.50h2.75v2.75h-2.75zM632.62 66.50h2.75v2.75h-2.75zM635.38 66.50h2.75v2.75h-2.75zM638.12 66.50h2.75v2.75h-2.75zM640.88 69.25h2.75v2.75h-2.75zM632.62 72.00h2.75v2.75h-2.75zM635.38 72.00h2.75v2.75h-2.75zM638.12 72.00h2.75v2.75h-2.75zM640.88 72.00h2.75v2.75h-2.75zM629.88 74.75h2.75v2.75h-2.75zM640.88 74.75h2.75v2.75h-2.75zM632.62 77.50h2.75v2.75h-2.75zM635.38 77.50h2.75v2.75h-2.75zM638.12 77.50h2.75v2.75h-2.75zM640.88 77.50h2.75v2.75h-2.75zM646.38 66.50h2.75v2.75h-2.75zM651.88 66.50h2.75v2.75h-2.75zM654.62 66.50h2.75v2.75h-2.75zM646.38 69.25h2.75v2.75h-2.75zM649.12 69.25h2.75v2.75h-2.75zM657.38 69.25h2.75v2.75h-2.75zM646.38 72.00h2.75v2.75h-2.75zM657.38 72.00h2.75v2.75h-2.75zM646.38 74.75h2.75v2.75h-2.75zM657.38 74.75h2.75v2.75h-2.75zM646.38 77.50h2.75v2.75h-2.75zM657.38 77.50h2.75v2.75h-2.75zM665.62 66.50h2.75v2.75h-2.75zM668.38 66.50h2.75v2.75h-2.75zM671.12 66.50h2.75v2.75h-2.75zM662.88 69.25h2.75v2.75h-2.75zM662.88 72.00h2.75v2.75h-2.75zM662.88 74.75h2.75v2.75h-2.75zM665.62 77.50h2.75v2.75h-2.75zM668.38 77.50h2.75v2.75h-2.75zM671.12 77.50h2.75v2.75h-2.75zM679.38 66.50h2.75v2.75h-2.75zM682.12 66.50h2.75v2.75h-2.75zM684.88 66.50h2.75v2.75h-2.75zM676.62 69.25h2.75v2.75h-2.75zM687.62 69.25h2.75v2.75h-2.75zM676.62 72.00h2.75v2.75h-2.75zM679.38 72.00h2.75v2.75h-2.75zM682.12 72.00h2.75v2.75h-2.75zM684.88 72.00h2.75v2.75h-2.75zM687.62 72.00h2.75v2.75h-2.75zM676.62 74.75h2.75v2.75h-2.75zM679.38 77.50h2.75v2.75h-2.75zM682.12 77.50h2.75v2.75h-2.75zM684.88 77.50h2.75v2.75h-2.75zM709.62 66.50h2.75v2.75h-2.75zM712.38 66.50h2.75v2.75h-2.75zM715.12 66.50h2.75v2.75h-2.75zM717.88 69.25h2.75v2.75h-2.75zM709.62 72.00h2.75v2.75h-2.75zM712.38 72.00h2.75v2.75h-2.75zM715.12 72.00h2.75v2.75h-2.75zM717.88 72.00h2.75v2.75h-2.75zM706.88 74.75h2.75v2.75h-2.75zM717.88 74.75h2.75v2.75h-2.75zM709.62 77.50h2.75v2.75h-2.75zM712.38 77.50h2.75v2.75h-2.75zM715.12 77.50h2.75v2.75h-2.75zM717.88 77.50h2.75v2.75h-2.75zM726.12 66.50h2.75v2.75h-2.75zM728.88 66.50h2.75v2.75h-2.75zM731.62 66.50h2.75v2.75h-2.75zM734.38 66.50h2.75v2.75h-2.75zM723.38 69.25h2.75v2.75h-2.75zM726.12 72.00h2.75v2.75h-2.75zM728.88 72.00h2.75v2.75h-2.75zM731.62 72.00h2.75v2.75h-2.75zM734.38 74.75h2.75v2.75h-2.75zM723.38 77.50h2.75v2.75h-2.75zM726.12 77.50h2.75v2.75h-2.75zM728.88 77.50h2.75v2.75h-2.75zM731.62 77.50h2.75v2.75h-2.75zM756.38 61.00h2.75v2.75h-2.75zM753.62 66.50h2.75v2.75h-2.75zM756.38 66.50h2.75v2.75h-2.75zM756.38 69.25h2.75v2.75h-2.75zM756.38 72.00h2.75v2.75h-2.75zM756.38 74.75h2.75v2.75h-2.75zM753.62 77.50h2.75v2.75h-2.75zM756.38 77.50h2.75v2.75h-2.75zM759.12 77.50h2.75v2.75h-2.75zM767.38 61.00h2.75v2.75h-2.75zM767.38 63.75h2.75v2.75h-2.75zM764.62 66.50h2.75v2.75h-2.75zM767.38 66.50h2.75v2.75h-2.75zM770.12 66.50h2.75v2.75h-2.75zM767.38 69.25h2.75v2.75h-2.75zM767.38 72.00h2.75v2.75h-2.75zM767.38 74.75h2.75v2.75h-2.75zM775.62 74.75h2.75v2.75h-2.75zM770.12 77.50h2.75v2.75h-2.75zM772.88 77.50h2.75v2.75h-2.75zM797.62 63.75h2.75v2.75h-2.75zM800.38 63.75h2.75v2.75h-2.75zM803.12 63.75h2.75v2.75h-2.75zM805.88 63.75h2.75v2.75h-2.75zM794.88 66.50h2.75v2.75h-2.75zM805.88 66.50h2.75v2.75h-2.75zM794.88 69.25h2.75v2.75h-2.75zM805.88 69.25h2.75v2.75h-2.75zM797.62 72.00h2.75v2.75h-2.75zM800.38 72.00h2.75v2.75h-2.75zM803.12 72.00h2.75v2.75h-2.75zM805.88 72.00h2.75v2.75h-2.75zM805.88 74.75h2.75v2.75h-2.75zM797.62 77.50h2.75v2.75h-2.75zM800.38 77.50h2.75v2.75h-2.75zM803.12 77.50h2.75v2.75h-2.75zM811.38 66.50h2.75v2.75h-2.75zM816.88 66.50h2.75v2.75h-2.75zM819.62 66.50h2.75v2.75h-2.75zM811.38 69.25h2.75v2.75h-2.75zM814.12 69.25h2.75v2.75h-2.75zM822.38 69.25h2.75v2.75h-2.75zM811.38 72.00h2.75v2.75h-2.75zM811.38 74.75h2.75v2.75h-2.75zM811.38 77.50h2.75v2.75h-2.75zM830.62 66.50h2.75v2.75h-2.75zM833.38 66.50h2.75v2.75h-2.75zM836.12 66.50h2.75v2.75h-2.75zM827.88 69.25h2.75v2.75h-2.75zM838.88 69.25h2.75v2.75h-2.75zM827.88 72.00h2.75v2.75h-2.75zM838.88 72.00h2.75v2.75h-2.75zM827.88 74.75h2.75v2.75h-2.75zM838.88 74.75h2.75v2.75h-2.75zM830.62 77.50h2.75v2.75h-2.75zM833.38 77.50h2.75v2.75h-2.75zM836.12 77.50h2.75v2.75h-2.75zM844.38 66.50h2.75v2.75h-2.75zM855.38 66.50h2.75v2.75h-2.75zM844.38 69.25h2.75v2.75h-2.75zM849.88 69.25h2.75v2.75h-2.75zM855.38 69.25h2.75v2.75h-2.75zM844.38 72.00h2.75v2.75h-2.75zM849.88 72.00h2.75v2.75h-2.75zM855.38 72.00h2.75v2.75h-2.75zM844.38 74.75h2.75v2.75h-2.75zM849.88 74.75h2.75v2.75h-2.75zM855.38 74.75h2.75v2.75h-2.75zM847.12 77.50h2.75v2.75h-2.75zM852.62 77.50h2.75v2.75h-2.75zM863.62 66.50h2.75v2.75h-2.75zM866.38 66.50h2.75v2.75h-2.75zM869.12 66.50h2.75v2.75h-2.75zM871.88 66.50h2.75v2.75h-2.75zM860.88 69.25h2.75v2.75h-2.75zM863.62 72.00h2.75v2.75h-2.75zM866.38 72.00h2.75v2.75h-2.75zM869.12 72.00h2.75v2.75h-2.75zM871.88 74.75h2.75v2.75h-2.75zM860.88 77.50h2.75v2.75h-2.75zM863.62 77.50h2.75v2.75h-2.75zM866.38 77.50h2.75v2.75h-2.75zM869.12 77.50h2.75v2.75h-2.75zM877.38 74.75h2.75v2.75h-2.75zM877.38 77.50h2.75v2.75h-2.75zM107.38 99.00h2.75v2.75h-2.75zM110.12 99.00h2.75v2.75h-2.75zM112.88 99.00h2.75v2.75h-2.75zM104.62 101.75h2.75v2.75h-2.75zM115.62 101.75h2.75v2.75h-2.75zM104.62 104.50h2.75v2.75h-2.75zM115.62 104.50h2.75v2.75h-2.75zM104.62 107.25h2.75v2.75h-2.75zM107.38 107.25h2.75v2.75h-2.75zM110.12 107.25h2.75v2.75h-2.75zM112.88 107.25h2.75v2.75h-2.75zM115.62 107.25h2.75v2.75h-2.75zM104.62 110.00h2.75v2.75h-2.75zM115.62 110.00h2.75v2.75h-2.75zM104.62 112.75h2.75v2.75h-2.75zM115.62 112.75h2.75v2.75h-2.75zM104.62 115.50h2.75v2.75h-2.75zM115.62 115.50h2.75v2.75h-2.75zM123.88 101.75h2.75v2.75h-2.75zM126.62 101.75h2.75v2.75h-2.75zM129.38 101.75h2.75v2.75h-2.75zM132.12 101.75h2.75v2.75h-2.75zM121.12 104.50h2.75v2.75h-2.75zM132.12 104.50h2.75v2.75h-2.75zM121.12 107.25h2.75v2.75h-2.75zM132.12 107.25h2.75v2.75h-2.75zM123.88 110.00h2.75v2.75h-2.75zM126.62 110.00h2.75v2.75h-2.75zM129.38 110.00h2.75v2.75h-2.75zM132.12 110.00h2.75v2.75h-2.75zM132.12 112.75h2.75v2.75h-2.75zM123.88 115.50h2.75v2.75h-2.75zM126.62 115.50h2.75v2.75h-2.75zM129.38 115.50h2.75v2.75h-2.75zM140.38 104.50h2.75v2.75h-2.75zM143.12 104.50h2.75v2.75h-2.75zM145.88 104.50h2.75v2.75h-2.75zM137.62 107.25h2.75v2.75h-2.75zM148.62 107.25h2.75v2.75h-2.75zM137.62 110.00h2.75v2.75h-2.75zM140.38 110.00h2.75v2.75h-2.75zM143.12 110.00h2.75v2.75h-2.75zM145.88 110.00h2.75v2.75h-2.75zM148.62 110.00h2.75v2.75h-2.75zM137.62 112.75h2.75v2.75h-2.75zM140.38 115.50h2.75v2.75h-2.75zM143.12 115.50h2.75v2.75h-2.75zM145.88 115.50h2.75v2.75h-2.75zM154.12 104.50h2.75v2.75h-2.75zM159.62 104.50h2.75v2.75h-2.75zM162.38 104.50h2.75v2.75h-2.75zM154.12 107.25h2.75v2.75h-2.75zM156.88 107.25h2.75v2.75h-2.75zM165.12 107.25h2.75v2.75h-2.75zM154.12 110.00h2.75v2.75h-2.75zM165.12 110.00h2.75v2.75h-2.75zM154.12 112.75h2.75v2.75h-2.75zM165.12 112.75h2.75v2.75h-2.75zM154.12 115.50h2.75v2.75h-2.75zM165.12 115.50h2.75v2.75h-2.75zM173.38 104.50h2.75v2.75h-2.75zM176.12 104.50h2.75v2.75h-2.75zM178.88 104.50h2.75v2.75h-2.75zM170.62 107.25h2.75v2.75h-2.75zM170.62 110.00h2.75v2.75h-2.75zM170.62 112.75h2.75v2.75h-2.75zM173.38 115.50h2.75v2.75h-2.75zM176.12 115.50h2.75v2.75h-2.75zM178.88 115.50h2.75v2.75h-2.75zM184.38 101.75h2.75v2.75h-2.75zM195.38 101.75h2.75v2.75h-2.75zM184.38 104.50h2.75v2.75h-2.75zM195.38 104.50h2.75v2.75h-2.75zM184.38 107.25h2.75v2.75h-2.75zM195.38 107.25h2.75v2.75h-2.75zM187.12 110.00h2.75v2.75h-2.75zM189.88 110.00h2.75v2.75h-2.75zM192.62 110.00h2.75v2.75h-2.75zM195.38 110.00h2.75v2.75h-2.75zM195.38 112.75h2.75v2.75h-2.75zM187.12 115.50h2.75v2.75h-2.75zM189.88 115.50h2.75v2.75h-2.75zM192.62 115.50h2.75v2.75h-2.75zM217.38 104.50h2.75v2.75h-2.75zM220.12 104.50h2.75v2.75h-2.75zM222.88 104.50h2.75v2.75h-2.75zM225.62 104.50h2.75v2.75h-2.75zM214.62 107.25h2.75v2.75h-2.75zM217.38 110.00h2.75v2.75h-2.75zM220.12 110.00h2.75v2.75h-2.75zM222.88 110.00h2.75v2.75h-2.75zM225.62 112.75h2.75v2.75h-2.75zM214.62 115.50h2.75v2.75h-2.75zM217.38 115.50h2.75v2.75h-2.75zM220.12 115.50h2.75v2.75h-2.75zM222.88 115.50h2.75v2.75h-2.75zM231.12 99.00h2.75v2.75h-2.75zM231.12 101.75h2.75v2.75h-2.75zM231.12 104.50h2.75v2.75h-2.75zM236.62 104.50h2.75v2.75h-2.75zM239.38 104.50h2.75v2.75h-2.75zM231.12 107.25h2.75v2.75h-2.75zM233.88 107.25h2.75v2.75h-2.75zM242.12 107.25h2.75v2.75h-2.75zM231.12 110.00h2.75v2.75h-2.75zM242.12 110.00h2.75v2.75h-2.75zM231.12 112.75h2.75v2.75h-2.75zM242.12 112.75h2.75v2.75h-2.75zM231.12 115.50h2.75v2.75h-2.75zM242.12 115.50h2.75v2.75h-2.75zM250.38 104.50h2.75v2.75h-2.75zM253.12 104.50h2.75v2.75h-2.75zM255.88 104.50h2.75v2.75h-2.75zM247.62 107.25h2.75v2.75h-2.75zM258.62 107.25h2.75v2.75h-2.75zM247.62 110.00h2.75v2.75h-2.75zM258.62 110.00h2.75v2.75h-2.75zM247.62 112.75h2.75v2.75h-2.75zM258.62 112.75h2.75v2.75h-2.75zM250.38 115.50h2.75v2.75h-2.75zM253.12 115.50h2.75v2.75h-2.75zM255.88 115.50h2.75v2.75h-2.75zM264.12 104.50h2.75v2.75h-2.75zM275.12 104.50h2.75v2.75h-2.75zM264.12 107.25h2.75v2.75h-2.75zM275.12 107.25h2.75v2.75h-2.75zM264.12 110.00h2.75v2.75h-2.75zM275.12 110.00h2.75v2.75h-2.75zM264.12 112.75h2.75v2.75h-2.75zM272.38 112.75h2.75v2.75h-2.75zM275.12 112.75h2.75v2.75h-2.75zM266.88 115.50h2.75v2.75h-2.75zM269.62 115.50h2.75v2.75h-2.75zM275.12 115.50h2.75v2.75h-2.75zM280.62 99.00h2.75v2.75h-2.75zM283.38 99.00h2.75v2.75h-2.75zM283.38 101.75h2.75v2.75h-2.75zM283.38 104.50h2.75v2.75h-2.75zM283.38 107.25h2.75v2.75h-2.75zM283.38 110.00h2.75v2.75h-2.75zM283.38 112.75h2.75v2.75h-2.75zM280.62 115.50h2.75v2.75h-2.75zM283.38 115.50h2.75v2.75h-2.75zM286.12 115.50h2.75v2.75h-2.75zM302.62 99.00h2.75v2.75h-2.75zM302.62 101.75h2.75v2.75h-2.75zM294.38 104.50h2.75v2.75h-2.75zM297.12 104.50h2.75v2.75h-2.75zM302.62 104.50h2.75v2.75h-2.75zM291.62 107.25h2.75v2.75h-2.75zM299.88 107.25h2.75v2.75h-2.75zM302.62 107.25h2.75v2.75h-2.75zM291.62 110.00h2.75v2.75h-2.75zM302.62 110.00h2.75v2.75h-2.75zM291.62 112.75h2.75v2.75h-2.75zM302.62 112.75h2.75v2.75h-2.75zM294.38 115.50h2.75v2.75h-2.75zM297.12 115.50h2.75v2.75h-2.75zM299.88 115.50h2.75v2.75h-2.75zM302.62 115.50h2.75v2.75h-2.75zM324.62 101.75h2.75v2.75h-2.75zM327.38 101.75h2.75v2.75h-2.75zM330.12 101.75h2.75v2.75h-2.75zM332.88 101.75h2.75v2.75h-2.75zM321.88 104.50h2.75v2.75h-2.75zM332.88 104.50h2.75v2.75h-2.75zM321.88 107.25h2.75v2.75h-2.75zM332.88 107.25h2.75v2.75h-2.75zM324.62 110.00h2.75v2.75h-2.75zM327.38 110.00h2.75v2.75h-2.75zM330.12 110.00h2.75v2.75h-2.75zM332.88 110.00h2.75v2.75h-2.75zM332.88 112.75h2.75v2.75h-2.75zM324.62 115.50h2.75v2.75h-2.75zM327.38 115.50h2.75v2.75h-2.75zM330.12 115.50h2.75v2.75h-2.75zM338.38 104.50h2.75v2.75h-2.75zM343.88 104.50h2.75v2.75h-2.75zM346.62 104.50h2.75v2.75h-2.75zM338.38 107.25h2.75v2.75h-2.75zM341.12 107.25h2.75v2.75h-2.75zM349.38 107.25h2.75v2.75h-2.75zM338.38 110.00h2.75v2.75h-2.75zM338.38 112.75h2.75v2.75h-2.75zM338.38 115.50h2.75v2.75h-2.75zM357.62 104.50h2.75v2.75h-2.75zM360.38 104.50h2.75v2.75h-2.75zM363.12 104.50h2.75v2.75h-2.75zM354.88 107.25h2.75v2.75h-2.75zM365.88 107.25h2.75v2.75h-2.75zM354.88 110.00h2.75v2.75h-2.75zM365.88 110.00h2.75v2.75h-2.75zM354.88 112.75h2.75v2.75h-2.75zM365.88 112.75h2.75v2.75h-2.75zM357.62 115.50h2.75v2.75h-2.75zM360.38 115.50h2.75v2.75h-2.75zM363.12 115.50h2.75v2.75h-2.75zM371.38 104.50h2.75v2.75h-2.75zM382.38 104.50h2.75v2.75h-2.75zM371.38 107.25h2.75v2.75h-2.75zM376.88 107.25h2.75v2.75h-2.75zM382.38 107.25h2.75v2.75h-2.75zM371.38 110.00h2.75v2.75h-2.75zM376.88 110.00h2.75v2.75h-2.75zM382.38 110.00h2.75v2.75h-2.75zM371.38 112.75h2.75v2.75h-2.75zM376.88 112.75h2.75v2.75h-2.75zM382.38 112.75h2.75v2.75h-2.75zM374.12 115.50h2.75v2.75h-2.75zM379.62 115.50h2.75v2.75h-2.75zM401.62 99.00h2.75v2.75h-2.75zM401.62 101.75h2.75v2.75h-2.75zM401.62 104.50h2.75v2.75h-2.75zM407.12 104.50h2.75v2.75h-2.75zM409.88 104.50h2.75v2.75h-2.75zM401.62 107.25h2.75v2.75h-2.75zM404.38 107.25h2.75v2.75h-2.75zM412.62 107.25h2.75v2.75h-2.75zM401.62 110.00h2.75v2.75h-2.75zM412.62 110.00h2.75v2.75h-2.75zM401.62 112.75h2.75v2.75h-2.75zM412.62 112.75h2.75v2.75h-2.75zM401.62 115.50h2.75v2.75h-2.75zM404.38 115.50h2.75v2.75h-2.75zM407.12 115.50h2.75v2.75h-2.75zM409.88 115.50h2.75v2.75h-2.75zM420.88 104.50h2.75v2.75h-2.75zM423.62 104.50h2.75v2.75h-2.75zM426.38 104.50h2.75v2.75h-2.75zM418.12 107.25h2.75v2.75h-2.75zM429.12 107.25h2.75v2.75h-2.75zM418.12 110.00h2.75v2.75h-2.75zM420.88 110.00h2.75v2.75h-2.75zM423.62 110.00h2.75v2.75h-2.75zM426.38 110.00h2.75v2.75h-2.75zM429.12 110.00h2.75v2.75h-2.75zM418.12 112.75h2.75v2.75h-2.75zM420.88 115.50h2.75v2.75h-2.75zM423.62 115.50h2.75v2.75h-2.75zM426.38 115.50h2.75v2.75h-2.75zM434.62 101.75h2.75v2.75h-2.75zM445.62 101.75h2.75v2.75h-2.75zM434.62 104.50h2.75v2.75h-2.75zM445.62 104.50h2.75v2.75h-2.75zM434.62 107.25h2.75v2.75h-2.75zM445.62 107.25h2.75v2.75h-2.75zM437.38 110.00h2.75v2.75h-2.75zM440.12 110.00h2.75v2.75h-2.75zM442.88 110.00h2.75v2.75h-2.75zM445.62 110.00h2.75v2.75h-2.75zM445.62 112.75h2.75v2.75h-2.75zM437.38 115.50h2.75v2.75h-2.75zM440.12 115.50h2.75v2.75h-2.75zM442.88 115.50h2.75v2.75h-2.75zM453.88 104.50h2.75v2.75h-2.75zM456.62 104.50h2.75v2.75h-2.75zM459.38 104.50h2.75v2.75h-2.75zM451.12 107.25h2.75v2.75h-2.75zM462.12 107.25h2.75v2.75h-2.75zM451.12 110.00h2.75v2.75h-2.75zM462.12 110.00h2.75v2.75h-2.75zM451.12 112.75h2.75v2.75h-2.75zM462.12 112.75h2.75v2.75h-2.75zM453.88 115.50h2.75v2.75h-2.75zM456.62 115.50h2.75v2.75h-2.75zM459.38 115.50h2.75v2.75h-2.75zM467.62 104.50h2.75v2.75h-2.75zM473.12 104.50h2.75v2.75h-2.75zM475.88 104.50h2.75v2.75h-2.75zM467.62 107.25h2.75v2.75h-2.75zM470.38 107.25h2.75v2.75h-2.75zM478.62 107.25h2.75v2.75h-2.75zM467.62 110.00h2.75v2.75h-2.75zM478.62 110.00h2.75v2.75h-2.75zM467.62 112.75h2.75v2.75h-2.75zM478.62 112.75h2.75v2.75h-2.75zM467.62 115.50h2.75v2.75h-2.75zM478.62 115.50h2.75v2.75h-2.75zM495.12 99.00h2.75v2.75h-2.75zM495.12 101.75h2.75v2.75h-2.75zM486.88 104.50h2.75v2.75h-2.75zM489.62 104.50h2.75v2.75h-2.75zM495.12 104.50h2.75v2.75h-2.75zM484.12 107.25h2.75v2.75h-2.75zM492.38 107.25h2.75v2.75h-2.75zM495.12 107.25h2.75v2.75h-2.75zM484.12 110.00h2.75v2.75h-2.75zM495.12 110.00h2.75v2.75h-2.75zM484.12 112.75h2.75v2.75h-2.75zM495.12 112.75h2.75v2.75h-2.75zM486.88 115.50h2.75v2.75h-2.75zM489.62 115.50h2.75v2.75h-2.75zM492.38 115.50h2.75v2.75h-2.75zM495.12 115.50h2.75v2.75h-2.75zM517.12 99.00h2.75v2.75h-2.75zM517.12 101.75h2.75v2.75h-2.75zM514.38 104.50h2.75v2.75h-2.75zM517.12 104.50h2.75v2.75h-2.75zM519.88 104.50h2.75v2.75h-2.75zM517.12 107.25h2.75v2.75h-2.75zM517.12 110.00h2.75v2.75h-2.75zM517.12 112.75h2.75v2.75h-2.75zM525.38 112.75h2.75v2.75h-2.75zM519.88 115.50h2.75v2.75h-2.75zM522.62 115.50h2.75v2.75h-2.75zM533.62 104.50h2.75v2.75h-2.75zM536.38 104.50h2.75v2.75h-2.75zM539.12 104.50h2.75v2.75h-2.75zM530.88 107.25h2.75v2.75h-2.75zM541.88 107.25h2.75v2.75h-2.75zM530.88 110.00h2.75v2.75h-2.75zM541.88 110.00h2.75v2.75h-2.75zM530.88 112.75h2.75v2.75h-2.75zM541.88 112.75h2.75v2.75h-2.75zM533.62 115.50h2.75v2.75h-2.75zM536.38 115.50h2.75v2.75h-2.75zM539.12 115.50h2.75v2.75h-2.75zM550.12 104.50h2.75v2.75h-2.75zM552.88 104.50h2.75v2.75h-2.75zM555.62 104.50h2.75v2.75h-2.75zM547.38 107.25h2.75v2.75h-2.75zM558.38 107.25h2.75v2.75h-2.75zM547.38 110.00h2.75v2.75h-2.75zM558.38 110.00h2.75v2.75h-2.75zM547.38 112.75h2.75v2.75h-2.75zM558.38 112.75h2.75v2.75h-2.75zM550.12 115.50h2.75v2.75h-2.75zM552.88 115.50h2.75v2.75h-2.75zM555.62 115.50h2.75v2.75h-2.75zM563.88 99.00h2.75v2.75h-2.75zM566.62 99.00h2.75v2.75h-2.75zM566.62 101.75h2.75v2.75h-2.75zM566.62 104.50h2.75v2.75h-2.75zM566.62 107.25h2.75v2.75h-2.75zM566.62 110.00h2.75v2.75h-2.75zM566.62 112.75h2.75v2.75h-2.75zM563.88 115.50h2.75v2.75h-2.75zM566.62 115.50h2.75v2.75h-2.75zM569.38 115.50h2.75v2.75h-2.75zM577.62 104.50h2.75v2.75h-2.75zM580.38 104.50h2.75v2.75h-2.75zM583.12 104.50h2.75v2.75h-2.75zM585.88 104.50h2.75v2.75h-2.75zM574.88 107.25h2.75v2.75h-2.75zM577.62 110.00h2.75v2.75h-2.75zM580.38 110.00h2.75v2.75h-2.75zM583.12 110.00h2.75v2.75h-2.75zM585.88 112.75h2.75v2.75h-2.75zM574.88 115.50h2.75v2.75h-2.75zM577.62 115.50h2.75v2.75h-2.75zM580.38 115.50h2.75v2.75h-2.75zM583.12 115.50h2.75v2.75h-2.75zM607.88 99.00h2.75v2.75h-2.75zM605.12 104.50h2.75v2.75h-2.75zM607.88 104.50h2.75v2.75h-2.75zM607.88 107.25h2.75v2.75h-2.75zM607.88 110.00h2.75v2.75h-2.75zM607.88 112.75h2.75v2.75h-2.75zM605.12 115.50h2.75v2.75h-2.75zM607.88 115.50h2.75v2.75h-2.75zM610.62 115.50h2.75v2.75h-2.75zM616.12 104.50h2.75v2.75h-2.75zM621.62 104.50h2.75v2.75h-2.75zM624.38 104.50h2.75v2.75h-2.75zM616.12 107.25h2.75v2.75h-2.75zM618.88 107.25h2.75v2.75h-2.75zM627.12 107.25h2.75v2.75h-2.75zM616.12 110.00h2.75v2.75h-2.75zM627.12 110.00h2.75v2.75h-2.75zM616.12 112.75h2.75v2.75h-2.75zM627.12 112.75h2.75v2.75h-2.75zM616.12 115.50h2.75v2.75h-2.75zM627.12 115.50h2.75v2.75h-2.75zM635.38 99.00h2.75v2.75h-2.75zM635.38 101.75h2.75v2.75h-2.75zM632.62 104.50h2.75v2.75h-2.75zM635.38 104.50h2.75v2.75h-2.75zM638.12 104.50h2.75v2.75h-2.75zM635.38 107.25h2.75v2.75h-2.75zM635.38 110.00h2.75v2.75h-2.75zM635.38 112.75h2.75v2.75h-2.75zM643.62 112.75h2.75v2.75h-2.75zM638.12 115.50h2.75v2.75h-2.75zM640.88 115.50h2.75v2.75h-2.75zM651.88 104.50h2.75v2.75h-2.75zM654.62 104.50h2.75v2.75h-2.75zM657.38 104.50h2.75v2.75h-2.75zM649.12 107.25h2.75v2.75h-2.75zM660.12 107.25h2.75v2.75h-2.75zM649.12 110.00h2.75v2.75h-2.75zM660.12 110.00h2.75v2.75h-2.75zM649.12 112.75h2.75v2.75h-2.75zM660.12 112.75h2.75v2.75h-2.75zM651.88 115.50h2.75v2.75h-2.75zM654.62 115.50h2.75v2.75h-2.75zM657.38 115.50h2.75v2.75h-2.75zM682.12 104.50h2.75v2.75h-2.75zM684.88 104.50h2.75v2.75h-2.75zM687.62 104.50h2.75v2.75h-2.75zM690.38 104.50h2.75v2.75h-2.75zM679.38 107.25h2.75v2.75h-2.75zM682.12 110.00h2.75v2.75h-2.75zM684.88 110.00h2.75v2.75h-2.75zM687.62 110.00h2.75v2.75h-2.75zM690.38 112.75h2.75v2.75h-2.75zM679.38 115.50h2.75v2.75h-2.75zM682.12 115.50h2.75v2.75h-2.75zM684.88 115.50h2.75v2.75h-2.75zM687.62 115.50h2.75v2.75h-2.75zM698.62 104.50h2.75v2.75h-2.75zM701.38 104.50h2.75v2.75h-2.75zM704.12 104.50h2.75v2.75h-2.75zM695.88 107.25h2.75v2.75h-2.75zM706.88 107.25h2.75v2.75h-2.75zM695.88 110.00h2.75v2.75h-2.75zM698.62 110.00h2.75v2.75h-2.75zM701.38 110.00h2.75v2.75h-2.75zM704.12 110.00h2.75v2.75h-2.75zM706.88 110.00h2.75v2.75h-2.75zM695.88 112.75h2.75v2.75h-2.75zM698.62 115.50h2.75v2.75h-2.75zM701.38 115.50h2.75v2.75h-2.75zM704.12 115.50h2.75v2.75h-2.75zM712.38 99.00h2.75v2.75h-2.75zM715.12 99.00h2.75v2.75h-2.75zM715.12 101.75h2.75v2.75h-2.75zM715.12 104.50h2.75v2.75h-2.75zM715.12 107.25h2.75v2.75h-2.75zM715.12 110.00h2.75v2.75h-2.75zM715.12 112.75h2.75v2.75h-2.75zM712.38 115.50h2.75v2.75h-2.75zM715.12 115.50h2.75v2.75h-2.75zM717.88 115.50h2.75v2.75h-2.75zM728.88 99.00h2.75v2.75h-2.75zM731.62 99.00h2.75v2.75h-2.75zM726.12 101.75h2.75v2.75h-2.75zM734.38 101.75h2.75v2.75h-2.75zM726.12 104.50h2.75v2.75h-2.75zM723.38 107.25h2.75v2.75h-2.75zM726.12 107.25h2.75v2.75h-2.75zM728.88 107.25h2.75v2.75h-2.75zM726.12 110.00h2.75v2.75h-2.75zM726.12 112.75h2.75v2.75h-2.75zM726.12 115.50h2.75v2.75h-2.75zM739.88 107.25h2.75v2.75h-2.75zM742.62 107.25h2.75v2.75h-2.75zM745.38 107.25h2.75v2.75h-2.75zM748.12 107.25h2.75v2.75h-2.75zM750.88 107.25h2.75v2.75h-2.75zM759.12 104.50h2.75v2.75h-2.75zM761.88 104.50h2.75v2.75h-2.75zM764.62 104.50h2.75v2.75h-2.75zM767.38 107.25h2.75v2.75h-2.75zM759.12 110.00h2.75v2.75h-2.75zM761.88 110.00h2.75v2.75h-2.75zM764.62 110.00h2.75v2.75h-2.75zM767.38 110.00h2.75v2.75h-2.75zM756.38 112.75h2.75v2.75h-2.75zM767.38 112.75h2.75v2.75h-2.75zM759.12 115.50h2.75v2.75h-2.75zM761.88 115.50h2.75v2.75h-2.75zM764.62 115.50h2.75v2.75h-2.75zM767.38 115.50h2.75v2.75h-2.75zM775.62 101.75h2.75v2.75h-2.75zM778.38 101.75h2.75v2.75h-2.75zM781.12 101.75h2.75v2.75h-2.75zM783.88 101.75h2.75v2.75h-2.75zM772.88 104.50h2.75v2.75h-2.75zM783.88 104.50h2.75v2.75h-2.75zM772.88 107.25h2.75v2.75h-2.75zM783.88 107.25h2.75v2.75h-2.75zM775.62 110.00h2.75v2.75h-2.75zM778.38 110.00h2.75v2.75h-2.75zM781.12 110.00h2.75v2.75h-2.75zM783.88 110.00h2.75v2.75h-2.75zM783.88 112.75h2.75v2.75h-2.75zM775.62 115.50h2.75v2.75h-2.75zM778.38 115.50h2.75v2.75h-2.75zM781.12 115.50h2.75v2.75h-2.75zM792.12 104.50h2.75v2.75h-2.75zM794.88 104.50h2.75v2.75h-2.75zM797.62 104.50h2.75v2.75h-2.75zM789.38 107.25h2.75v2.75h-2.75zM800.38 107.25h2.75v2.75h-2.75zM789.38 110.00h2.75v2.75h-2.75zM792.12 110.00h2.75v2.75h-2.75zM794.88 110.00h2.75v2.75h-2.75zM797.62 110.00h2.75v2.75h-2.75zM800.38 110.00h2.75v2.75h-2.75zM789.38 112.75h2.75v2.75h-2.75zM792.12 115.50h2.75v2.75h-2.75zM794.88 115.50h2.75v2.75h-2.75zM797.62 115.50h2.75v2.75h-2.75zM805.88 104.50h2.75v2.75h-2.75zM811.38 104.50h2.75v2.75h-2.75zM814.12 104.50h2.75v2.75h-2.75zM805.88 107.25h2.75v2.75h-2.75zM808.62 107.25h2.75v2.75h-2.75zM816.88 107.25h2.75v2.75h-2.75zM805.88 110.00h2.75v2.75h-2.75zM816.88 110.00h2.75v2.75h-2.75zM805.88 112.75h2.75v2.75h-2.75zM816.88 112.75h2.75v2.75h-2.75zM805.88 115.50h2.75v2.75h-2.75zM816.88 115.50h2.75v2.75h-2.75zM825.12 104.50h2.75v2.75h-2.75zM827.88 104.50h2.75v2.75h-2.75zM830.62 104.50h2.75v2.75h-2.75zM822.38 107.25h2.75v2.75h-2.75zM822.38 110.00h2.75v2.75h-2.75zM822.38 112.75h2.75v2.75h-2.75zM825.12 115.50h2.75v2.75h-2.75zM827.88 115.50h2.75v2.75h-2.75zM830.62 115.50h2.75v2.75h-2.75zM836.12 101.75h2.75v2.75h-2.75zM847.12 101.75h2.75v2.75h-2.75zM836.12 104.50h2.75v2.75h-2.75zM847.12 104.50h2.75v2.75h-2.75zM836.12 107.25h2.75v2.75h-2.75zM847.12 107.25h2.75v2.75h-2.75zM838.88 110.00h2.75v2.75h-2.75zM841.62 110.00h2.75v2.75h-2.75zM844.38 110.00h2.75v2.75h-2.75zM847.12 110.00h2.75v2.75h-2.75zM847.12 112.75h2.75v2.75h-2.75zM838.88 115.50h2.75v2.75h-2.75zM841.62 115.50h2.75v2.75h-2.75zM844.38 115.50h2.75v2.75h-2.75zM852.62 112.75h2.75v2.75h-2.75zM852.62 115.50h2.75v2.75h-2.75z"/>
    </g>
  </g>
</svg>
